  0
SECTION
  2
HEADER
  9
$ACADVER
  1
AC1027
  9
$ACADMAINTVER
 70
   105
  9
$DWGCODEPAGE
  3
ANSI_1252
  9
$REQUIREDVERSIONS
160
                 0
  9
$INSBASE
 10
0.0
 20
0.0
 30
0.0
  9
$EXTMIN
 10
1.680677377962894
 20
1.05095389879429
 30
-0.0000000000000221
  9
$EXTMAX
 10
14.37067737795022
 20
9.407650506127851
 30
0.000000000000011
  9
$LIMMIN
 10
0.0
 20
0.0
  9
$LIMMAX
 10
420.0
 20
297.0
  9
$ORTHOMODE
 70
     0
  9
$REGENMODE
 70
     1
  9
$FILLMODE
 70
     1
  9
$QTEXTMODE
 70
     0
  9
$MIRRTEXT
 70
     0
  9
$LTSCALE
 40
1.0
  9
$ATTMODE
 70
     1
  9
$TEXTSIZE
 40
2.5
  9
$TRACEWID
 40
1.0
  9
$TEXTSTYLE
  7
Standard
  9
$CLAYER
  8
0
  9
$CELTYPE
  6
ByLayer
  9
$CECOLOR
 62
   256
  9
$CELTSCALE
 40
1.0
  9
$DISPSILH
 70
     0
  9
$DIMSCALE
 40
1.0
  9
$DIMASZ
 40
2.5
  9
$DIMEXO
 40
0.625
  9
$DIMDLI
 40
3.75
  9
$DIMRND
 40
0.0
  9
$DIMDLE
 40
0.0
  9
$DIMEXE
 40
1.25
  9
$DIMTP
 40
0.0
  9
$DIMTM
 40
0.0
  9
$DIMTXT
 40
2.5
  9
$DIMCEN
 40
2.5
  9
$DIMTSZ
 40
0.0
  9
$DIMTOL
 70
     0
  9
$DIMLIM
 70
     0
  9
$DIMTIH
 70
     0
  9
$DIMTOH
 70
     0
  9
$DIMSE1
 70
     0
  9
$DIMSE2
 70
     0
  9
$DIMTAD
 70
     1
  9
$DIMZIN
 70
     8
  9
$DIMBLK
  1

  9
$DIMASO
 70
     1
  9
$DIMSHO
 70
     1
  9
$DIMPOST
  1

  9
$DIMAPOST
  1

  9
$DIMALT
 70
     0
  9
$DIMALTD
 70
     3
  9
$DIMALTF
 40
0.03937007874016
  9
$DIMLFAC
 40
1.0
  9
$DIMTOFL
 70
     1
  9
$DIMTVP
 40
0.0
  9
$DIMTIX
 70
     0
  9
$DIMSOXD
 70
     0
  9
$DIMSAH
 70
     0
  9
$DIMBLK1
  1

  9
$DIMBLK2
  1

  9
$DIMSTYLE
  2
ISO-25
  9
$DIMCLRD
 70
     0
  9
$DIMCLRE
 70
     0
  9
$DIMCLRT
 70
     0
  9
$DIMTFAC
 40
1.0
  9
$DIMGAP
 40
0.625
  9
$DIMJUST
 70
     0
  9
$DIMSD1
 70
     0
  9
$DIMSD2
 70
     0
  9
$DIMTOLJ
 70
     0
  9
$DIMTZIN
 70
     8
  9
$DIMALTZ
 70
     0
  9
$DIMALTTZ
 70
     0
  9
$DIMUPT
 70
     0
  9
$DIMDEC
 70
     2
  9
$DIMTDEC
 70
     2
  9
$DIMALTU
 70
     2
  9
$DIMALTTD
 70
     3
  9
$DIMTXSTY
  7
Standard
  9
$DIMAUNIT
 70
     0
  9
$DIMADEC
 70
     0
  9
$DIMALTRND
 40
0.0
  9
$DIMAZIN
 70
     0
  9
$DIMDSEP
 70
    44
  9
$DIMATFIT
 70
     3
  9
$DIMFRAC
 70
     0
  9
$DIMLDRBLK
  1

  9
$DIMLUNIT
 70
     2
  9
$DIMLWD
 70
    -2
  9
$DIMLWE
 70
    -2
  9
$DIMTMOVE
 70
     0
  9
$DIMFXL
 40
1.0
  9
$DIMFXLON
 70
     0
  9
$DIMJOGANG
 40
0.7853981633974483
  9
$DIMTFILL
 70
     0
  9
$DIMTFILLCLR
 70
     0
  9
$DIMARCSYM
 70
     0
  9
$DIMLTYPE
  6

  9
$DIMLTEX1
  6

  9
$DIMLTEX2
  6

  9
$DIMTXTDIRECTION
 70
     0
  9
$LUNITS
 70
     2
  9
$LUPREC
 70
     3
  9
$SKETCHINC
 40
1.0
  9
$FILLETRAD
 40
10.0
  9
$AUNITS
 70
     0
  9
$AUPREC
 70
     0
  9
$MENU
  1
.
  9
$ELEVATION
 40
0.0
  9
$PELEVATION
 40
0.0
  9
$THICKNESS
 40
0.0
  9
$LIMCHECK
 70
     0
  9
$CHAMFERA
 40
10.0
  9
$CHAMFERB
 40
10.0
  9
$CHAMFERC
 40
20.0
  9
$CHAMFERD
 40
0.0
  9
$SKPOLY
 70
     0
  9
$TDCREATE
 40
2455022.42902618
  9
$TDUCREATE
 40
2455022.637359514
  9
$TDUPDATE
 40
2457989.819021516
  9
$TDUUPDATE
 40
2457990.02735485
  9
$TDINDWG
 40
0.0000000231
  9
$TDUSRTIMER
 40
2457990.02707103
  9
$USRTIMER
 70
     1
  9
$ANGBASE
 50
0.0
  9
$ANGDIR
 70
     0
  9
$PDMODE
 70
     0
  9
$PDSIZE
 40
0.0
  9
$PLINEWID
 40
0.0
  9
$SPLFRAME
 70
     0
  9
$SPLINETYPE
 70
     6
  9
$SPLINESEGS
 70
     8
  9
$HANDSEED
  5
20F
  9
$SURFTAB1
 70
     6
  9
$SURFTAB2
 70
     6
  9
$SURFTYPE
 70
     6
  9
$SURFU
 70
     6
  9
$SURFV
 70
     6
  9
$UCSBASE
  2

  9
$UCSNAME
  2

  9
$UCSORG
 10
0.0
 20
0.0
 30
0.0
  9
$UCSXDIR
 10
1.0
 20
0.0
 30
0.0
  9
$UCSYDIR
 10
0.0
 20
1.0
 30
0.0
  9
$UCSORTHOREF
  2

  9
$UCSORTHOVIEW
 70
     0
  9
$UCSORGTOP
 10
0.0
 20
0.0
 30
0.0
  9
$UCSORGBOTTOM
 10
0.0
 20
0.0
 30
0.0
  9
$UCSORGLEFT
 10
0.0
 20
0.0
 30
0.0
  9
$UCSORGRIGHT
 10
0.0
 20
0.0
 30
0.0
  9
$UCSORGFRONT
 10
0.0
 20
0.0
 30
0.0
  9
$UCSORGBACK
 10
0.0
 20
0.0
 30
0.0
  9
$PUCSBASE
  2

  9
$PUCSNAME
  2

  9
$PUCSORG
 10
0.0
 20
0.0
 30
0.0
  9
$PUCSXDIR
 10
1.0
 20
0.0
 30
0.0
  9
$PUCSYDIR
 10
0.0
 20
1.0
 30
0.0
  9
$PUCSORTHOREF
  2

  9
$PUCSORTHOVIEW
 70
     0
  9
$PUCSORGTOP
 10
0.0
 20
0.0
 30
0.0
  9
$PUCSORGBOTTOM
 10
0.0
 20
0.0
 30
0.0
  9
$PUCSORGLEFT
 10
0.0
 20
0.0
 30
0.0
  9
$PUCSORGRIGHT
 10
0.0
 20
0.0
 30
0.0
  9
$PUCSORGFRONT
 10
0.0
 20
0.0
 30
0.0
  9
$PUCSORGBACK
 10
0.0
 20
0.0
 30
0.0
  9
$USERI1
 70
     0
  9
$USERI2
 70
     0
  9
$USERI3
 70
     0
  9
$USERI4
 70
     0
  9
$USERI5
 70
     0
  9
$USERR1
 40
0.0
  9
$USERR2
 40
0.0
  9
$USERR3
 40
0.0
  9
$USERR4
 40
0.0
  9
$USERR5
 40
0.0
  9
$WORLDVIEW
 70
     1
  9
$SHADEDGE
 70
     3
  9
$SHADEDIF
 70
    70
  9
$TILEMODE
 70
     1
  9
$MAXACTVP
 70
    64
  9
$PINSBASE
 10
0.0
 20
0.0
 30
0.0
  9
$PLIMCHECK
 70
     0
  9
$PEXTMIN
 10
1.000000000000000E+20
 20
1.000000000000000E+20
 30
1.000000000000000E+20
  9
$PEXTMAX
 10
-1.000000000000000E+20
 20
-1.000000000000000E+20
 30
-1.000000000000000E+20
  9
$PLIMMIN
 10
0.0
 20
0.0
  9
$PLIMMAX
 10
0.0
 20
0.0
  9
$UNITMODE
 70
     0
  9
$VISRETAIN
 70
     1
  9
$PLINEGEN
 70
     0
  9
$PSLTSCALE
 70
     1
  9
$TREEDEPTH
 70
  3020
  9
$CMLSTYLE
  2
Standard
  9
$CMLJUST
 70
     0
  9
$CMLSCALE
 40
20.0
  9
$PROXYGRAPHICS
 70
     1
  9
$MEASUREMENT
 70
     1
  9
$CELWEIGHT
370
    -1
  9
$ENDCAPS
280
     0
  9
$JOINSTYLE
280
     0
  9
$LWDISPLAY
290
     0
  9
$INSUNITS
 70
     4
  9
$HYPERLINKBASE
  1

  9
$STYLESHEET
  1

  9
$XEDIT
290
     1
  9
$CEPSNTYPE
380
     0
  9
$PSTYLEMODE
290
     1
  9
$FINGERPRINTGUID
  2
{EC6BB858-51AA-46EC-B484-6C9CC7AB3E2E}
  9
$VERSIONGUID
  2
{FAEB1C32-E019-11D5-929B-00C0DF256EC4}
  9
$EXTNAMES
290
     1
  9
$PSVPSCALE
 40
0.0
  9
$OLESTARTUP
290
     0
  9
$SORTENTS
280
   127
  9
$INDEXCTL
280
     0
  9
$HIDETEXT
280
     1
  9
$XCLIPFRAME
280
     0
  9
$HALOGAP
280
     0
  9
$OBSCOLOR
 70
   257
  9
$OBSLTYPE
280
     0
  9
$INTERSECTIONDISPLAY
280
     0
  9
$INTERSECTIONCOLOR
 70
   257
  9
$DIMASSOC
280
     2
  9
$PROJECTNAME
  1

  9
$CAMERADISPLAY
290
     0
  9
$LENSLENGTH
 40
50.0
  9
$CAMERAHEIGHT
 40
0.0
  9
$STEPSPERSEC
 40
2.0
  9
$STEPSIZE
 40
6.0
  9
$3DDWFPREC
 40
2.0
  9
$PSOLWIDTH
 40
5.0
  9
$PSOLHEIGHT
 40
80.0
  9
$LOFTANG1
 40
1.570796326794897
  9
$LOFTANG2
 40
1.570796326794897
  9
$LOFTMAG1
 40
0.0
  9
$LOFTMAG2
 40
0.0
  9
$LOFTPARAM
 70
     7
  9
$LOFTNORMALS
280
     1
  9
$LATITUDE
 40
37.795
  9
$LONGITUDE
 40
-122.394
  9
$NORTHDIRECTION
 40
0.0
  9
$TIMEZONE
 70
 -8000
  9
$LIGHTGLYPHDISPLAY
280
     1
  9
$TILEMODELIGHTSYNCH
280
     1
  9
$SOLIDHIST
280
     1
  9
$SHOWHIST
280
     1
  9
$DWFFRAME
280
     2
  9
$DGNFRAME
280
     2
  9
$REALWORLDSCALE
290
     1
  9
$INTERFERECOLOR
 62
   256
  9
$CSHADOW
280
     0
  9
$SHADOWPLANELOCATION
 40
0.0
  0
ENDSEC
  0
SECTION
  2
CLASSES
  0
CLASS
  1
ACDBDICTIONARYWDFLT
  2
AcDbDictionaryWithDefault
  3
ObjectDBX Classes
 90
        0
 91
        6
280
     0
281
     0
  0
CLASS
  1
VISUALSTYLE
  2
AcDbVisualStyle
  3
ObjectDBX Classes
 90
     4095
 91
        6
280
     0
281
     0
  0
CLASS
  1
TABLESTYLE
  2
AcDbTableStyle
  3
ObjectDBX Classes
 90
     4095
 91
        6
280
     0
281
     0
  0
CLASS
  1
DICTIONARYVAR
  2
AcDbDictionaryVar
  3
ObjectDBX Classes
 90
        0
 91
        6
280
     0
281
     0
  0
CLASS
  1
SCALE
  2
AcDbScale
  3
ObjectDBX Classes
 90
     1153
 91
        6
280
     0
281
     0
  0
CLASS
  1
CELLSTYLEMAP
  2
AcDbCellStyleMap
  3
ObjectDBX Classes
 90
     1152
 91
        6
280
     0
281
     0
  0
CLASS
  1
RASTERVARIABLES
  2
AcDbRasterVariables
  3
ISM
 90
        0
 91
        6
280
     0
281
     0
  0
CLASS
  1
MATERIAL
  2
AcDbMaterial
  3
ObjectDBX Classes
 90
     1153
 91
        6
280
     0
281
     0
  0
CLASS
  1
SUN
  2
AcDbSun
  3
SCENEOE
 90
     1153
 91
        6
280
     0
281
     0
  0
CLASS
  1
MLEADERSTYLE
  2
AcDbMLeaderStyle
  3
ACDB_MLEADERSTYLE_CLASS
 90
     4095
 91
        6
280
     0
281
     0
  0
CLASS
  1
SORTENTSTABLE
  2
AcDbSortentsTable
  3
ObjectDBX Classes
 90
        0
 91
        6
280
     0
281
     0
  0
ENDSEC
  0
SECTION
  2
TABLES
  0
TABLE
  2
VPORT
  5
8
330
0
100
AcDbSymbolTable
 70
     1
  0
VPORT
  5
29
330
8
100
AcDbSymbolTableRecord
100
AcDbViewportTableRecord
  2
*Active
 70
     0
 10
0.0
 20
0.0
 11
1.0
 21
1.0
 12
141.7319614734844
 22
3.173677035374098
 13
0.0
 23
0.0
 14
10.0
 24
10.0
 15
10.0
 25
10.0
 16
0.0
 26
0.0
 36
1.0
 17
-134.1869158878503
 27
0.0
 37
0.0
 40
21.17659395096575
 41
2.029649595687331
 42
50.0
 43
0.0
 44
0.0
 50
0.0
 51
0.0
 71
    16
 72
  1000
 73
     1
 74
     3
 75
     0
 76
     0
 77
     0
 78
     0
281
     0
 65
     1
110
0.0
120
0.0
130
0.0
111
1.0
121
0.0
131
0.0
112
0.0
122
1.0
132
0.0
 79
     0
146
0.0
348
2F
 60
     3
 61
     5
292
     1
282
     1
141
0.0
142
0.0
 63
   256
361
80
  0
ENDTAB
  0
TABLE
  2
LTYPE
  5
5
330
0
100
AcDbSymbolTable
 70
     1
  0
LTYPE
  5
14
330
5
100
AcDbSymbolTableRecord
100
AcDbLinetypeTableRecord
  2
ByBlock
 70
     0
  3

 72
    65
 73
     0
 40
0.0
  0
LTYPE
  5
15
330
5
100
AcDbSymbolTableRecord
100
AcDbLinetypeTableRecord
  2
ByLayer
 70
     0
  3

 72
    65
 73
     0
 40
0.0
  0
LTYPE
  5
16
330
5
100
AcDbSymbolTableRecord
100
AcDbLinetypeTableRecord
  2
Continuous
 70
     0
  3
Solid line
 72
    65
 73
     0
 40
0.0
  0
ENDTAB
  0
TABLE
  2
LAYER
  5
2
102
{ACAD_XDICTIONARY
360
206
102
}
330
0
100
AcDbSymbolTable
 70
     2
  0
LAYER
  5
10
330
2
100
AcDbSymbolTableRecord
100
AcDbLayerTableRecord
  2
0
 70
     0
 62
     7
  6
Continuous
370
    -3
390
F
347
75
348
0
  0
LAYER
  5
BD
330
2
100
AcDbSymbolTableRecord
100
AcDbLayerTableRecord
  2
freecad trace layer
 70
     0
 62
    30
  6
Continuous
370
   100
390
F
347
75
348
0
1001
AcAecLayerStandard
1000

1000
Default AutoCAD layer
  0
ENDTAB
  0
TABLE
  2
STYLE
  5
3
330
0
100
AcDbSymbolTable
 70
     3
  0
STYLE
  5
11
330
3
100
AcDbSymbolTableRecord
100
AcDbTextStyleTableRecord
  2
Standard
 70
     0
 40
0.0
 41
1.0
 50
0.0
 71
     0
 42
2.5
  3
arial.ttf
  4

1001
ACAD
1000
Arial
1071
        0
  0
STYLE
  5
B8
330
3
100
AcDbSymbolTableRecord
100
AcDbTextStyleTableRecord
  2
Annotative
 70
     0
 40
0.0
 41
1.0
 50
0.0
 71
     0
 42
2.5
  3
arial.ttf
  4

1001
ACAD
1000
Arial
1071
        0
1001
AcadAnnotative
1000
AnnotativeData
1002
{
1070
     1
1070
     1
1002
}
  0
STYLE
  5
C3
330
3
100
AcDbSymbolTableRecord
100
AcDbTextStyleTableRecord
  2
E-ROMANS
 70
     0
 40
0.0
 41
0.8
 50
0.0
 71
     0
 42
2.5
  3
romans.shx
  4

  0
ENDTAB
  0
TABLE
  2
VIEW
  5
6
330
0
100
AcDbSymbolTable
 70
     0
  0
ENDTAB
  0
TABLE
  2
UCS
  5
7
330
0
100
AcDbSymbolTable
 70
     0
  0
ENDTAB
  0
TABLE
  2
APPID
  5
9
330
0
100
AcDbSymbolTable
 70
     9
  0
APPID
  5
12
330
9
100
AcDbSymbolTableRecord
100
AcDbRegAppTableRecord
  2
ACAD
 70
     0
  0
APPID
  5
B9
330
9
100
AcDbSymbolTableRecord
100
AcDbRegAppTableRecord
  2
AcadAnnotative
 70
     0
  0
APPID
  5
C1
330
9
100
AcDbSymbolTableRecord
100
AcDbRegAppTableRecord
  2
AcAecLayerStandard
 70
     0
  0
APPID
  5
CA
330
9
100
AcDbSymbolTableRecord
100
AcDbRegAppTableRecord
  2
ACAD_DSTYLE_DIMBREAK
 70
     0
  0
APPID
  5
CB
330
9
100
AcDbSymbolTableRecord
100
AcDbRegAppTableRecord
  2
ACAD_DSTYLE_DIMJAG
 70
     0
  0
APPID
  5
CC
330
9
100
AcDbSymbolTableRecord
100
AcDbRegAppTableRecord
  2
ACAD_DSTYLE_DIMTALN
 70
     0
  0
APPID
  5
CD
330
9
100
AcDbSymbolTableRecord
100
AcDbRegAppTableRecord
  2
ACAD_DSTYLE_DIMTEXT_FILL
 70
     0
  0
APPID
  5
CE
330
9
100
AcDbSymbolTableRecord
100
AcDbRegAppTableRecord
  2
ACAD_PSEXT
 70
     0
  0
APPID
  5
CF
330
9
100
AcDbSymbolTableRecord
100
AcDbRegAppTableRecord
  2
ACAD_NAV_VCDISPLAY
 70
     0
  0
ENDTAB
  0
TABLE
  2
DIMSTYLE
  5
A
330
0
100
AcDbSymbolTable
 70
     3
100
AcDbDimStyleTable
  0
DIMSTYLE
105
27
330
A
100
AcDbSymbolTableRecord
100
AcDbDimStyleTableRecord
  2
ISO-25
 70
     0
 41
2.5
 42
0.625
 43
3.75
 44
1.25
 73
     0
 74
     0
 77
     1
 78
     8
140
2.5
141
2.5
143
0.03937007874016
147
0.625
171
     3
172
     1
178
     0
271
     2
272
     2
274
     3
278
    44
283
     0
284
     8
340
11
  0
DIMSTYLE
105
BA
330
A
100
AcDbSymbolTableRecord
100
AcDbDimStyleTableRecord
  2
Annotative
 70
     0
 40
0.0
 41
2.5
 42
0.625
 43
3.75
 44
1.25
 73
     0
 74
     0
 77
     1
 78
     8
140
2.5
141
2.5
143
0.03937007874016
147
0.625
171
     3
172
     1
178
     0
271
     2
272
     2
274
     3
278
    44
283
     0
284
     8
340
11
1001
AcadAnnotative
1000
AnnotativeData
1002
{
1070
     1
1070
     1
1002
}
  0
DIMSTYLE
105
C2
330
A
100
AcDbSymbolTableRecord
100
AcDbDimStyleTableRecord
  2
E-0100_ARW_18
 70
     0
 40
0.001
 41
180.0
 42
60.0
 43
30.0
 44
90.0
 69
     1
 70
     0
 73
     0
 74
     0
140
180.0
141
90.0
147
90.0
172
     1
176
   256
177
   256
271
     2
178
   256
271
     2
272
     2
279
     1
340
C3
341
C4
342
C4
1001
ACAD_DSTYLE_DIMBREAK
1070
   391
1040
3.0
1001
ACAD_DSTYLE_DIMJAG
1070
   388
1040
2.0
1001
ACAD_DSTYLE_DIMTALN
1070
   392
1070
     0
1001
ACAD_DSTYLE_DIMTEXT_FILL
1070
   376
1070
     1
1070
   377
1004
1800000001000000000000C1000000000000000000000000
  0
ENDTAB
  0
TABLE
  2
BLOCK_RECORD
  5
1
330
0
100
AcDbSymbolTable
 70
     4
  0
BLOCK_RECORD
  5
1F
330
1
100
AcDbSymbolTableRecord
100
AcDbBlockTableRecord
  2
*Model_Space
340
22
 70
     0
280
     1
281
     0
  0
BLOCK_RECORD
  5
1B
330
1
100
AcDbSymbolTableRecord
100
AcDbBlockTableRecord
  2
*Paper_Space
340
1E
 70
     0
280
     1
281
     0
  0
BLOCK_RECORD
  5
23
330
1
100
AcDbSymbolTableRecord
100
AcDbBlockTableRecord
  2
*Paper_Space0
340
26
 70
     0
280
     1
281
     0
  0
BLOCK_RECORD
  5
BC
102
{ACAD_XDICTIONARY
360
F4
102
}
330
1
100
AcDbSymbolTableRecord
100
AcDbBlockTableRecord
  2
A$C980181008
340
0
102
{BLKREFS
331
20A
102
}
 70
     0
280
     1
281
     0
  0
BLOCK_RECORD
  5
C4
330
1
100
AcDbSymbolTableRecord
100
AcDbBlockTableRecord
  2
_Open90
340
0
 70
     0
280
     1
281
     0
  0
BLOCK_RECORD
  5
202
330
1
100
AcDbSymbolTableRecord
100
AcDbBlockTableRecord
  2
_Oblique
340
0
 70
     0
280
     1
281
     0
  0
ENDTAB
  0
ENDSEC
  0
SECTION
  2
BLOCKS
  0
BLOCK
  5
20
330
1F
100
AcDbEntity
  8
0
100
AcDbBlockBegin
  2
*Model_Space
 70
     0
 10
0.0
 20
0.0
 30
0.0
  3
*Model_Space
  1

  0
ENDBLK
  5
21
330
1F
100
AcDbEntity
  8
0
100
AcDbBlockEnd
  0
BLOCK
  5
1C
330
1B
100
AcDbEntity
 67
     1
  8
0
100
AcDbBlockBegin
  2
*Paper_Space
 70
     0
 10
0.0
 20
0.0
 30
0.0
  3
*Paper_Space
  1

  0
ENDBLK
  5
1D
330
1B
100
AcDbEntity
 67
     1
  8
0
100
AcDbBlockEnd
  0
BLOCK
  5
24
330
23
100
AcDbEntity
  8
0
100
AcDbBlockBegin
  2
*Paper_Space0
 70
     0
 10
0.0
 20
0.0
 30
0.0
  3
*Paper_Space0
  1

  0
ENDBLK
  5
25
330
23
100
AcDbEntity
  8
0
100
AcDbBlockEnd
  0
BLOCK
  5
208
330
BC
100
AcDbEntity
  8
0
100
AcDbBlockBegin
  2
A$C980181008
 70
     0
 10
0.0
 20
0.0
 30
0.0
  3
A$C980181008
  1

  0
LWPOLYLINE
  5
F6
330
BC
100
AcDbEntity
  8
freecad trace layer
100
AcDbPolyline
 90
        4
 70
     1
 43
0.0
 10
3.145061029301104
 20
8.175087842486889
 10
3.145061029301104
 20
7.82508784248688
 10
3.285057367542805
 20
7.82508784248688
 10
3.285057367542805
 20
8.175087842486889
  0
LWPOLYLINE
  5
F7
330
BC
100
AcDbEntity
  8
freecad trace layer
100
AcDbPolyline
 90
        5
 70
     0
 43
0.0
 10
3.287614463793517
 20
8.163764488271823
 10
3.288933102173701
 20
8.1128933871789
 10
3.338916312959498
 20
8.114189010404942
 10
3.337597674579314
 20
8.165060111497837
 10
3.287614463793517
 20
8.163764488271823
  0
LINE
  5
F8
330
BC
100
AcDbEntity
  8
freecad trace layer
100
AcDbLine
 10
3.287614463793517
 20
8.163764488271823
 30
0.0
 11
3.338916312959498
 21
8.114189010404942
 31
0.0
  0
LINE
  5
F9
330
BC
100
AcDbEntity
  8
freecad trace layer
100
AcDbLine
 10
3.288933102173701
 20
8.1128933871789
 30
0.0
 11
3.337597674579314
 21
8.165060111497837
 31
0.0
  0
LINE
  5
FA
330
BC
100
AcDbEntity
  8
freecad trace layer
100
AcDbLine
 10
4.244166671386324
 20
8.136207249440517
 30
0.0
 11
4.292831243791937
 21
8.188373973759454
 31
0.0
  0
LINE
  5
FB
330
BC
100
AcDbEntity
  8
freecad trace layer
100
AcDbLine
 10
4.24284803300614
 20
8.18707835053344
 30
0.0
 11
4.294149882172121
 21
8.137502872666559
 31
0.0
  0
LWPOLYLINE
  5
FC
330
BC
100
AcDbEntity
  8
freecad trace layer
100
AcDbPolyline
 90
        5
 70
     0
 43
0.0
 10
4.24284803300614
 20
8.18707835053344
 10
4.244166671386324
 20
8.136207249440517
 10
4.294149882172121
 20
8.137502872666559
 10
4.292831243791937
 20
8.188373973759454
 10
4.24284803300614
 20
8.18707835053344
  0
LINE
  5
FD
330
BC
100
AcDbEntity
  8
freecad trace layer
100
AcDbLine
 10
5.243830887102035
 20
8.163552612079854
 30
0.0
 11
5.292495459507649
 21
8.215719336398791
 31
0.0
  0
LINE
  5
FE
330
BC
100
AcDbEntity
  8
freecad trace layer
100
AcDbLine
 10
5.242512248721852
 20
8.214423713172778
 30
0.0
 11
5.293814097887832
 21
8.164848235305897
 31
0.0
  0
LWPOLYLINE
  5
FF
330
BC
100
AcDbEntity
  8
freecad trace layer
100
AcDbPolyline
 90
        5
 70
     0
 43
0.0
 10
5.242512248721852
 20
8.214423713172778
 10
5.243830887102035
 20
8.163552612079854
 10
5.293814097887832
 20
8.164848235305897
 10
5.292495459507649
 20
8.215719336398791
 10
5.242512248721852
 20
8.214423713172778
  0
LINE
  5
100
330
BC
100
AcDbEntity
  8
freecad trace layer
100
AcDbLine
 10
7.243159318533429
 20
8.214288218324327
 30
0.0
 11
7.291823890939042
 21
8.266454942643264
 31
0.0
  0
LINE
  5
101
330
BC
100
AcDbEntity
  8
freecad trace layer
100
AcDbLine
 10
7.241840680153246
 20
8.26515931941725
 30
0.0
 11
7.293142529319226
 21
8.21558384155037
 31
0.0
  0
LWPOLYLINE
  5
102
330
BC
100
AcDbEntity
  8
freecad trace layer
100
AcDbPolyline
 90
        5
 70
     0
 43
0.0
 10
7.241840680153246
 20
8.26515931941725
 10
7.243159318533429
 20
8.214288218324327
 10
7.293142529319226
 20
8.21558384155037
 10
7.291823890939042
 20
8.266454942643264
 10
7.241840680153246
 20
8.26515931941725
  0
LINE
  5
103
330
BC
100
AcDbEntity
  8
freecad trace layer
100
AcDbLine
 10
8.242823534249112
 20
8.241335259736616
 30
0.0
 11
8.291488106654725
 21
8.293501984055553
 31
0.0
  0
LINE
  5
104
330
BC
100
AcDbEntity
  8
freecad trace layer
100
AcDbLine
 10
8.241504895868928
 20
8.292206360829539
 30
0.0
 11
8.292806745034909
 21
8.242630882962658
 31
0.0
  0
LWPOLYLINE
  5
105
330
BC
100
AcDbEntity
  8
freecad trace layer
100
AcDbPolyline
 90
        5
 70
     0
 43
0.0
 10
8.241504895868928
 20
8.292206360829539
 10
8.242823534249112
 20
8.241335259736616
 10
8.292806745034909
 20
8.242630882962658
 10
8.291488106654725
 20
8.293501984055553
 10
8.241504895868928
 20
8.292206360829539
  0
LINE
  5
106
330
BC
100
AcDbEntity
  8
freecad trace layer
100
AcDbLine
 10
8.987177120156815
 20
8.260787996968446
 30
0.0
 11
9.035841692562428
 21
8.312954721287383
 31
0.0
  0
LINE
  5
107
330
BC
100
AcDbEntity
  8
freecad trace layer
100
AcDbLine
 10
8.985858481776631
 20
8.31165909806137
 30
0.0
 11
9.037160330942612
 21
8.262083620194488
 31
0.0
  0
LWPOLYLINE
  5
108
330
BC
100
AcDbEntity
  8
freecad trace layer
100
AcDbPolyline
 90
        5
 70
     0
 43
0.0
 10
8.985858481776631
 20
8.31165909806137
 10
8.987177120156815
 20
8.260787996968446
 10
9.037160330942612
 20
8.262083620194488
 10
9.035841692562428
 20
8.312954721287383
 10
8.985858481776631
 20
8.31165909806137
  0
LWPOLYLINE
  5
109
330
BC
100
AcDbEntity
  8
freecad trace layer
100
AcDbPolyline
 90
        2
 70
     0
 43
0.0
 10
3.144942632449244
 20
7.82508784248688
 10
3.145057367542734
 20
3.224330800867818
  0
LWPOLYLINE
  5
10A
330
BC
100
AcDbEntity
  8
freecad trace layer
100
AcDbPolyline
 90
        9
 70
     0
 43
0.0
 10
3.139999999996292
 20
3.224329924554254
 10
3.139999999996292
 20
2.875000000000028
 10
3.289999999996297
 20
2.875000000000028
 10
3.289999999996297
 20
3.124330800867824
 10
9.039999999997576
 20
3.124330800867796
 10
9.039999999997576
 20
2.875000000000028
 10
9.189999999997553
 20
2.875000000000028
 10
9.189999999997497
 20
3.224330800867861
 10
3.139999999996292
 20
3.224330800867818
  0
LWPOLYLINE
  5
10B
330
BC
100
AcDbEntity
  8
freecad trace layer
100
AcDbPolyline
 90
        5
 70
     0
 43
0.0
 10
9.045375563018581
 20
8.174330800867907
 10
9.185375563018624
 20
8.174330800867907
 10
9.185375563018624
 20
7.824330800867898
 10
9.045375563018581
 20
7.824330800867898
 10
9.045375563018581
 20
8.174330800867907
  0
LWPOLYLINE
  5
10C
330
BC
100
AcDbEntity
  8
freecad trace layer
100
AcDbPolyline
 90
        6
 70
     0
 43
0.0
 10
9.045375563018581
 20
8.17087682265172
 10
9.042375563018567
 20
8.17087682265172
 10
9.042375563018567
 20
8.123876822651724
 10
8.99537556301857
 20
8.123876822651724
 10
8.99537556301857
 20
8.120876822651724
 10
9.045375563018581
 20
8.120876822651724
  0
LWPOLYLINE
  5
10D
330
BC
100
AcDbEntity
  8
freecad trace layer
100
AcDbPolyline
 90
       15
 70
     0
 43
0.0
 10
8.984370385328447
 20
8.351150879628392
 10
8.984453148870529
 20
8.348152021479677
 10
9.182314548721308
 20
8.353612669992415
 10
9.182314548721308
 20
8.330577540579775
 10
9.115624604248126
 20
8.2461257939664
 10
9.115624604248126
 20
8.177877100502371
 10
9.189054644851808
 20
8.177877100502371
 10
9.189054644851808
 20
8.157877100502375
 10
9.192054644851822
 20
8.157877100502375
 10
9.192054644851822
 20
8.180877100502386
 10
9.11862460424814
 20
8.180877100502386
 10
9.11862460424814
 20
8.245084091889026
 10
9.185314548721323
 20
8.329535838502402
 10
9.185314548721323
 20
8.356696607333753
 10
8.984370385328447
 20
8.351150879628392
  0
LWPOLYLINE
  5
10E
330
BC
100
AcDbEntity
  8
freecad trace layer
100
AcDbPolyline
 90
        5
 70
     0
 43
0.0
 10
9.178941419896006
 20
8.332642327814455
 10
9.178474995534657
 20
8.350636283697334
 10
3.127965489744412
 20
8.193400795821034
 10
3.128431914105789
 20
8.175406839938162
 10
9.178941419896006
 20
8.332642327814455
  0
LWPOLYLINE
  5
10F
330
BC
100
AcDbEntity
  8
freecad trace layer
100
AcDbPolyline
 90
        5
 70
     0
 43
0.0
 10
9.114088923005482
 20
8.31615895703655
 10
9.114437159268675
 20
8.326171342698117
 10
3.28621899287171
 20
8.175097117894609
 10
3.286279083965667
 20
8.165095316555242
 10
9.114088923005482
 20
8.31615895703655
  0
LWPOLYLINE
  5
110
330
BC
100
AcDbEntity
  8
freecad trace layer
100
AcDbPolyline
 90
        5
 70
     0
 43
0.0
 10
9.113887949726404
 20
8.262779690281349
 10
9.112996100321283
 20
8.176083604205417
 10
9.040116035692506
 20
8.176083604205417
 10
9.040424747663138
 20
8.126096382378847
 10
6.183691491954534
 20
8.050092646546489
  0
LINE
  5
111
330
BC
100
AcDbEntity
  8
freecad trace layer
100
AcDbLine
 10
6.132057775220488
 20
8.048797404913856
 30
0.0
 11
4.641295623223641
 21
8.010155108066101
 31
0.0
  0
LINE
  5
112
330
BC
100
AcDbEntity
  8
freecad trace layer
100
AcDbLine
 10
3.289455890188066
 20
8.111460030468436
 30
0.0
 11
4.577820499170713
 21
8.144855946511626
 31
0.0
  0
LINE
  5
113
330
BC
100
AcDbEntity
  8
freecad trace layer
100
AcDbLine
 10
4.637726626363047
 20
8.14784168144432
 30
0.0
 11
6.133254436989887
 21
8.186607509732156
 31
0.0
  0
LINE
  5
114
330
BC
100
AcDbEntity
  8
freecad trace layer
100
AcDbLine
 10
6.156307798320654
 20
8.239489814291261
 30
0.0
 11
6.156387902708161
 21
8.249483737422683
 31
0.0
  0
LINE
  5
115
330
BC
100
AcDbEntity
  8
freecad trace layer
100
AcDbLine
 10
6.158794153326483
 20
8.249557622488908
 30
0.0
 11
6.158713956645641
 21
8.239552184726506
 31
0.0
  0
LINE
  5
116
330
BC
100
AcDbEntity
  8
freecad trace layer
100
AcDbLine
 10
9.113887949726404
 20
8.262779690281349
 30
0.0
 11
6.183258116753876
 21
8.186814340741947
 31
0.0
  0
LWPOLYLINE
  5
117
330
BC
100
AcDbEntity
  8
freecad trace layer
100
AcDbPolyline
 90
        7
 70
     0
 43
0.0
 10
3.286040149788704
 20
8.021184267877672
 10
3.28904014978869
 20
8.021184267877672
 10
3.28904014978869
 20
7.974184267877675
 10
3.336040149788687
 20
7.974184267877675
 10
3.336040149788687
 20
7.971184267877675
 10
3.286040149788704
 20
7.971184267877675
 10
3.286040149788704
 20
8.021184267877672
  0
LWPOLYLINE
  5
118
330
BC
100
AcDbEntity
  8
freecad trace layer
100
AcDbPolyline
 90
        2
 70
     0
 43
0.0
 10
3.290837464316695
 20
7.975149654656207
 10
4.576567384773909
 20
8.008477276494332
  0
LWPOLYLINE
  5
119
330
BC
100
AcDbEntity
  8
freecad trace layer
100
AcDbPolyline
 90
        4
 70
     0
 43
0.0
 10
3.286279083965667
 20
8.165095316555242
 10
3.287123727722758
 20
8.024509440944684
 10
3.290837464316695
 20
8.024509440944684
 10
3.290837464316695
 20
7.975149654656207
  0
LINE
  5
11A
330
BC
100
AcDbEntity
  8
freecad trace layer
100
AcDbLine
 10
4.579999999997597
 20
8.198630074335682
 30
0.0
 11
4.579999999997654
 21
5.594347690843563
 31
0.0
  0
LINE
  5
11B
330
BC
100
AcDbEntity
  8
freecad trace layer
100
AcDbLine
 10
4.639999999997684
 20
5.574347690843524
 30
-0.0000000000000111
 11
4.639999999997599
 21
8.200185344442161
 31
0.0
  0
LINE
  5
11C
330
BC
100
AcDbEntity
  8
freecad trace layer
100
AcDbLine
 10
6.133701000237835
 20
8.238034679530983
 30
0.0
 11
6.181962400799847
 21
8.037596946149762
 31
0.0
  0
LINE
  5
11D
330
BC
100
AcDbEntity
  8
freecad trace layer
100
AcDbLine
 10
6.131964383653155
 20
8.038042234143177
 30
0.0
 11
6.183699017384555
 21
8.237589391537597
 31
0.0
  0
LWPOLYLINE
  5
11E
330
BC
100
AcDbEntity
  8
freecad trace layer
100
AcDbPolyline
 90
        5
 70
     0
 43
0.0
 10
6.131964383653155
 20
8.038042234143177
 10
6.133701000237863
 20
8.238034679531012
 10
6.183699017384555
 20
8.237589391537597
 10
6.181962400799847
 20
8.037596946149762
 10
6.131964383653155
 20
8.038042234143177
  0
LWPOLYLINE
  5
11F
330
BC
100
AcDbEntity
  8
freecad trace layer
100
AcDbPolyline
 90
        4
 70
     1
 43
0.0
 10
3.285057367542777
 20
5.574347197246453
 10
3.285057367542777
 20
5.424120257296025
 10
3.335057367542817
 20
5.424120257296025
 10
3.335057367542817
 20
5.574347197246453
  0
LINE
  5
120
330
BC
100
AcDbEntity
  8
freecad trace layer
100
AcDbLine
 10
3.285057367542777
 20
5.574347197246453
 30
-0.0000000000000108
 11
3.335057367542817
 21
5.424120257296281
 31
0.0
  0
LINE
  5
121
330
BC
100
AcDbEntity
  8
freecad trace layer
100
AcDbLine
 10
3.335057367542817
 20
5.574347197246453
 30
-0.0000000000000108
 11
3.285057367542805
 21
5.424120257296281
 31
0.0
  0
LWPOLYLINE
  5
122
330
BC
100
AcDbEntity
  8
freecad trace layer
100
AcDbPolyline
 90
        4
 70
     1
 43
0.0
 10
3.335057367542817
 20
5.484120257296013
 10
3.335057367542817
 20
5.43412025729603
 10
3.385057367542828
 20
5.43412025729603
 10
3.385057367542828
 20
5.484120257296013
  0
LINE
  5
123
330
BC
100
AcDbEntity
  8
freecad trace layer
100
AcDbLine
 10
3.335057367542817
 20
5.484120257296013
 30
0.0
 11
3.385057367542828
 21
5.43412025729603
 31
0.0
  0
LINE
  5
124
330
BC
100
AcDbEntity
  8
freecad trace layer
100
AcDbLine
 10
3.335057367542817
 20
5.43412025729603
 30
0.0
 11
3.385057367542828
 21
5.484120257296013
 31
0.0
  0
LWPOLYLINE
  5
125
330
BC
100
AcDbEntity
  8
freecad trace layer
100
AcDbPolyline
 90
        4
 70
     1
 43
0.0
 10
3.335057367542817
 20
5.424120257296281
 10
3.335057367542817
 20
5.43412025729603
 10
3.905047070791454
 20
5.43412025729603
 10
3.905047070791454
 20
5.424120257296281
  0
LWPOLYLINE
  5
126
330
BC
100
AcDbEntity
  8
freecad trace layer
100
AcDbPolyline
 90
        4
 70
     1
 43
0.0
 10
3.855047070791471
 20
5.484120257296027
 10
3.855047070791471
 20
5.43412025729603
 10
3.905047070791454
 20
5.43412025729603
 10
3.905047070791454
 20
5.484120257296027
  0
LINE
  5
127
330
BC
100
AcDbEntity
  8
freecad trace layer
100
AcDbLine
 10
3.855047070791471
 20
5.484120257296027
 30
0.0
 11
3.905047070791454
 21
5.43412025729603
 31
0.0
  0
LINE
  5
128
330
BC
100
AcDbEntity
  8
freecad trace layer
100
AcDbLine
 10
3.855047070791471
 20
5.43412025729603
 30
0.0
 11
3.905047070791454
 21
5.484120257296027
 31
0.0
  0
LWPOLYLINE
  5
129
330
BC
100
AcDbEntity
  8
freecad trace layer
100
AcDbPolyline
 90
        4
 70
     1
 43
0.0
 10
3.904999999998836
 20
5.374347500776992
 10
3.904999999998836
 20
5.574347690843553
 10
3.954999999998847
 20
5.574347690843553
 10
3.954999999998847
 20
5.374347500776992
  0
LINE
  5
12A
330
BC
100
AcDbEntity
  8
freecad trace layer
100
AcDbLine
 10
3.904999999998836
 20
5.374347500776992
 30
-0.0000000000000061
 11
3.954999999998847
 21
5.574347690843553
 31
0.0000000000000018
  0
LINE
  5
12B
330
BC
100
AcDbEntity
  8
freecad trace layer
100
AcDbLine
 10
3.904999999998836
 20
5.574347690843439
 30
0.0
 11
3.954999999998847
 21
5.374347500776992
 31
0.0
  0
LWPOLYLINE
  5
12C
330
BC
100
AcDbEntity
  8
freecad trace layer
100
AcDbPolyline
 90
        4
 70
     1
 43
0.0
 10
4.589999999997673
 20
5.374347500776963
 10
4.589999999997673
 20
5.574348295207329
 10
4.639999999997656
 20
5.574348295207329
 10
4.639999999997656
 20
5.374347500776963
  0
LINE
  5
12D
330
BC
100
AcDbEntity
  8
freecad trace layer
100
AcDbLine
 10
4.589999999997673
 20
5.574347690843524
 30
0.0
 11
4.639999999997684
 21
5.374347500776963
 31
0.0
  0
LINE
  5
12E
330
BC
100
AcDbEntity
  8
freecad trace layer
100
AcDbLine
 10
4.589999999997673
 20
5.374347500776935
 30
-0.0000000000000158
 11
4.639999999997684
 21
5.574347690843524
 31
-0.0000000000000111
  0
LWPOLYLINE
  5
12F
330
BC
100
AcDbEntity
  8
freecad trace layer
100
AcDbPolyline
 90
        4
 70
     1
 43
0.0
 10
5.48999999999765
 20
5.374347690843535
 10
5.48999999999765
 20
5.57434769084341
 10
5.439999999997639
 20
5.57434769084341
 10
5.439999999997639
 20
5.374347690843535
  0
LINE
  5
130
330
BC
100
AcDbEntity
  8
freecad trace layer
100
AcDbLine
 10
5.439999999997639
 20
5.57434769084341
 30
0.0
 11
5.48999999999765
 21
5.374347690843535
 31
0.0
  0
LINE
  5
131
330
BC
100
AcDbEntity
  8
freecad trace layer
100
AcDbLine
 10
5.439999999997639
 20
5.374347690843507
 30
-0.0000000000000111
 11
5.48999999999765
 21
5.574347690843524
 31
-0.0000000000000111
  0
LWPOLYLINE
  5
132
330
BC
100
AcDbEntity
  8
freecad trace layer
100
AcDbPolyline
 90
        4
 70
     1
 43
0.0
 10
8.995375563018484
 20
5.574347690844036
 10
8.995375563018484
 20
5.424347690844314
 10
9.045375563018496
 20
5.424347690844314
 10
9.045375563018496
 20
5.574347690844036
  0
LINE
  5
133
330
BC
100
AcDbEntity
  8
freecad trace layer
100
AcDbLine
 10
8.995375563018484
 20
5.574347690844178
 30
0.0
 11
9.045375563018439
 21
5.424330800867864
 31
0.0
  0
LINE
  5
134
330
BC
100
AcDbEntity
  8
freecad trace layer
100
AcDbLine
 10
8.995375563018484
 20
5.424347690844314
 30
0.0
 11
9.045375563018496
 21
5.574347690844291
 31
0.000000000000011
  0
LWPOLYLINE
  5
135
330
BC
100
AcDbEntity
  8
freecad trace layer
100
AcDbPolyline
 90
        4
 70
     1
 43
0.0
 10
8.464669622925356
 20
5.374347690844019
 10
8.464669622925356
 20
5.574347690843922
 10
8.414669622925402
 20
5.574347690843922
 10
8.414669622925402
 20
5.374347690844019
  0
LINE
  5
136
330
BC
100
AcDbEntity
  8
freecad trace layer
100
AcDbLine
 10
8.414669622925402
 20
5.574347690844036
 30
0.000000000000011
 11
8.464669622925356
 21
5.374347690844019
 31
0.000000000000011
  0
LINE
  5
137
330
BC
100
AcDbEntity
  8
freecad trace layer
100
AcDbLine
 10
8.414669622925402
 20
5.374347690844047
 30
0.0
 11
8.464669622925356
 21
5.574347690843922
 31
0.000000000000011
  0
LWPOLYLINE
  5
138
330
BC
100
AcDbEntity
  8
freecad trace layer
100
AcDbPolyline
 90
        4
 70
     1
 43
0.0
 10
7.814669622925408
 20
5.574347690843666
 10
7.814669622925408
 20
5.374347690843791
 10
7.864669622925419
 20
5.374347690843791
 10
7.864669622925419
 20
5.574347690843666
  0
LINE
  5
139
330
BC
100
AcDbEntity
  8
freecad trace layer
100
AcDbLine
 10
7.814669622925408
 20
5.57434769084378
 30
0.000000000000011
 11
7.864669622925419
 21
5.374347690843791
 31
0.0
  0
LINE
  5
13A
330
BC
100
AcDbEntity
  8
freecad trace layer
100
AcDbLine
 10
7.814669622925408
 20
5.374347690843791
 30
0.0
 11
7.864669622925419
 21
5.574347690843666
 31
0.0
  0
LINE
  5
13B
330
BC
100
AcDbEntity
  8
freecad trace layer
100
AcDbLine
 10
7.21466962292547
 20
5.374347690843564
 30
-0.000000000000011
 11
7.264669622925481
 21
5.574347690843439
 31
-0.000000000000011
  0
LINE
  5
13C
330
BC
100
AcDbEntity
  8
freecad trace layer
100
AcDbLine
 10
7.21466962292547
 20
5.574347690843553
 30
0.0
 11
7.264669622925481
 21
5.374347690843564
 31
-0.000000000000011
  0
LWPOLYLINE
  5
13D
330
BC
100
AcDbEntity
  8
freecad trace layer
100
AcDbPolyline
 90
        4
 70
     1
 43
0.0
 10
7.21466962292547
 20
5.574347690843439
 10
7.21466962292547
 20
5.374347690843564
 10
7.264669622925481
 20
5.374347690843564
 10
7.264669622925481
 20
5.574347690843439
  0
LINE
  5
13E
330
BC
100
AcDbEntity
  8
freecad trace layer
100
AcDbLine
 10
6.614669622925391
 20
5.374347690843535
 30
-0.0000000000000221
 11
6.664669622925402
 21
5.57434769084341
 31
-0.0000000000000221
  0
LINE
  5
13F
330
BC
100
AcDbEntity
  8
freecad trace layer
100
AcDbLine
 10
6.614669622925391
 20
5.574347690843524
 30
-0.0000000000000111
 11
6.664669622925402
 21
5.374347690843535
 31
-0.0000000000000221
  0
LWPOLYLINE
  5
140
330
BC
100
AcDbEntity
  8
freecad trace layer
100
AcDbPolyline
 90
        4
 70
     1
 43
0.0
 10
6.614669622925391
 20
5.57434769084341
 10
6.614669622925391
 20
5.374347690843535
 10
6.664669622925402
 20
5.374347690843535
 10
6.664669622925402
 20
5.57434769084341
  0
LINE
  5
141
330
BC
100
AcDbEntity
  8
freecad trace layer
100
AcDbLine
 10
6.014669622925453
 20
5.374347690843564
 30
-0.000000000000011
 11
6.064669622925464
 21
5.574347690843439
 31
-0.000000000000011
  0
LINE
  5
142
330
BC
100
AcDbEntity
  8
freecad trace layer
100
AcDbLine
 10
6.014669622925453
 20
5.574347690843553
 30
0.0
 11
6.064669622925464
 21
5.374347690843564
 31
-0.000000000000011
  0
LWPOLYLINE
  5
143
330
BC
100
AcDbEntity
  8
freecad trace layer
100
AcDbPolyline
 90
        4
 70
     1
 43
0.0
 10
6.014669622925453
 20
5.574347690843439
 10
6.014669622925453
 20
5.374347690843564
 10
6.064669622925464
 20
5.374347690843564
 10
6.064669622925464
 20
5.574347690843439
  0
LINE
  5
144
330
BC
100
AcDbEntity
  8
freecad trace layer
100
AcDbLine
 10
3.389999999996263
 20
6.41434769084367
 30
0.0
 11
3.389999999996263
 21
7.82508730995886
 31
0.0
  0
LINE
  5
145
330
BC
100
AcDbEntity
  8
freecad trace layer
100
AcDbLine
 10
3.389999999996263
 20
7.82508730995886
 30
0.0
 11
4.579999999997625
 21
7.82508730995886
 31
0.0
  0
LWPOLYLINE
  5
146
330
BC
100
AcDbEntity
  8
freecad trace layer
100
AcDbPolyline
 90
        4
 70
     0
 43
0.0
 10
4.639999999997627
 20
7.825087309958846
 10
5.089999999997559
 20
7.82508730995886
 10
5.089999999997559
 20
5.575669199132491
 10
4.689999999997639
 20
5.575669199132491
  0
LWPOLYLINE
  5
147
330
BC
100
AcDbEntity
  8
freecad trace layer
100
AcDbPolyline
 90
        4
 70
     1
 43
0.0
 10
3.285057367542777
 20
5.574347690843553
 10
3.285057367542777
 20
5.594347690843563
 10
4.639999999997656
 20
5.594347690843563
 10
4.639999999997656
 20
5.574347690843553
  0
LINE
  5
148
330
BC
100
AcDbEntity
  8
freecad trace layer
100
AcDbLine
 10
3.285207559304951
 20
7.825236338559904
 30
0.0
 11
3.285057367542777
 21
5.594347690843563
 31
0.0000000000000018
  0
LINE
  5
149
330
BC
100
AcDbEntity
  8
freecad trace layer
100
AcDbLine
 10
3.285057367542777
 20
5.424120257296025
 30
-0.0000000000000108
 11
3.285057367542748
 21
4.224330800867847
 31
0.0
  0
LINE
  5
14A
330
BC
100
AcDbEntity
  8
freecad trace layer
100
AcDbLine
 10
3.274942632449154
 20
4.224330800867847
 30
0.0
 11
3.274942632449182
 21
7.825193114272665
 31
0.0
  0
LWPOLYLINE
  5
14B
330
BC
100
AcDbEntity
  8
freecad trace layer
100
AcDbPolyline
 90
        4
 70
     1
 43
0.0
 10
3.22500579496068
 20
7.809982703685108
 10
3.22500579496068
 20
7.824982570701081
 10
3.274942632449182
 20
7.824982570701081
 10
3.274942632449182
 20
7.809982703685108
  0
LINE
  5
14C
330
BC
100
AcDbEntity
  8
freecad trace layer
100
AcDbLine
 10
3.22500579496068
 20
7.824982570701081
 30
0.0
 11
3.224942632452553
 21
6.624120257296312
 31
0.0
  0
LWPOLYLINE
  5
14D
330
BC
100
AcDbEntity
  8
freecad trace layer
100
AcDbPolyline
 90
        4
 70
     1
 43
0.0
 10
3.224942632452553
 20
6.639120124312313
 10
3.224942632449142
 20
6.624120257296312
 10
3.274942632449182
 20
6.624120257296312
 10
3.274942632449182
 20
6.639120124312313
  0
LWPOLYLINE
  5
14E
330
BC
100
AcDbEntity
  8
freecad trace layer
100
AcDbPolyline
 90
        4
 70
     1
 43
0.0
 10
3.224942632449171
 20
5.424330800867835
 10
3.224942632449171
 20
5.439120257296281
 10
3.274942632449154
 20
5.439120257296281
 10
3.274942632449154
 20
5.424330800867835
  0
LINE
  5
14F
330
BC
100
AcDbEntity
  8
freecad trace layer
100
AcDbLine
 10
3.224942632449171
 20
5.424330800867835
 30
0.0
 11
3.224942632452553
 21
6.624120257296312
 31
0.0
  0
LINE
  5
150
330
BC
100
AcDbEntity
  8
freecad trace layer
100
AcDbLine
 10
3.224942632449171
 20
5.424330800867835
 30
0.0
 11
3.224942632449171
 21
4.224330800867847
 31
0.0
  0
LWPOLYLINE
  5
151
330
BC
100
AcDbEntity
  8
freecad trace layer
100
AcDbPolyline
 90
        4
 70
     1
 43
0.0
 10
3.224942632449171
 20
4.239120257296264
 10
3.224942632449171
 20
4.224330800867847
 10
3.274942632449154
 20
4.224330800867847
 10
3.274942632449154
 20
4.239120257296264
  0
LINE
  5
152
330
BC
100
AcDbEntity
  8
freecad trace layer
100
AcDbLine
 10
3.145057367542762
 20
4.224330800867847
 30
0.0
 11
3.285057367542748
 21
4.224330800867847
 31
0.0
  0
LINE
  5
153
330
BC
100
AcDbEntity
  8
freecad trace layer
100
AcDbLine
 10
3.285057367542748
 20
4.224330800867847
 30
0.0
 11
3.285057367542748
 21
3.224330800867818
 31
0.0
  0
LINE
  5
154
330
BC
100
AcDbEntity
  8
freecad trace layer
100
AcDbLine
 10
3.145057367542734
 20
3.424330800867807
 30
0.0
 11
3.285057367542748
 21
3.424330800867807
 31
0.0
  0
LINE
  5
155
330
BC
100
AcDbEntity
  8
freecad trace layer
100
AcDbLine
 10
3.145057367542734
 20
3.624330800867824
 30
0.0
 11
3.285057367542748
 21
3.624330800867824
 31
0.0
  0
LINE
  5
156
330
BC
100
AcDbEntity
  8
freecad trace layer
100
AcDbLine
 10
3.145057367542734
 20
3.824330800867841
 30
0.0
 11
3.285057367542748
 21
3.824330800867841
 31
0.0
  0
LINE
  5
157
330
BC
100
AcDbEntity
  8
freecad trace layer
100
AcDbLine
 10
3.145057367542734
 20
4.02433080086783
 30
0.0
 11
3.285057367542748
 21
4.02433080086783
 31
0.0
  0
LWPOLYLINE
  5
158
330
BC
100
AcDbEntity
  8
freecad trace layer
100
AcDbPolyline
 90
        7
 70
     0
 43
0.0
 10
3.299336133235272
 20
4.180404313693785
 10
3.324336133235306
 20
4.180404313693785
 10
3.324336133235306
 20
4.12435906072578
 10
3.80398000139877
 20
4.124359060725766
 10
3.80398000139877
 20
4.074359060725754
 10
3.299336133235272
 20
4.074359060725769
 10
3.299336133235272
 20
4.180404313693785
  0
LWPOLYLINE
  5
159
330
BC
100
AcDbEntity
  8
freecad trace layer
100
AcDbPolyline
 90
        4
 70
     0
 43
0.0
 10
3.30573602813044
 20
3.224330800867833
 10
3.305736028130411
 20
4.070050733469401
 10
3.80123774761077
 20
4.070050733469401
 10
3.801237747610799
 20
3.224330800867818
  0
LWPOLYLINE
  5
15A
330
BC
100
AcDbEntity
  8
freecad trace layer
100
AcDbPolyline
 90
        4
 70
     0
 43
0.0
 10
3.335736028130441
 20
3.224330800867833
 10
3.335736028130441
 20
3.288730800867825
 10
3.771237747610797
 20
3.288730800867853
 10
3.771237747610797
 20
3.224330800867818
  0
LWPOLYLINE
  5
15B
330
BC
100
AcDbEntity
  8
freecad trace layer
100
AcDbPolyline
 90
        4
 70
     1
 43
0.0
 10
3.335736028130412
 20
4.0400507334694
 10
3.335736028130412
 20
3.318730800867854
 10
3.771237747610797
 20
3.318730800867854
 10
3.771237747610797
 20
4.0400507334694
  0
LWPOLYLINE
  5
15C
330
BC
100
AcDbEntity
  8
freecad trace layer
100
AcDbPolyline
 90
        3
 70
     0
 43
0.0
 10
3.389999999996292
 20
4.124359060725737
 10
3.389999999996263
 20
5.225694979243144
 10
4.639999999997684
 20
5.225692388262047
  0
LINE
  5
15D
330
BC
100
AcDbEntity
  8
freecad trace layer
100
AcDbLine
 10
3.389999999996235
 20
4.0400507334694
 30
0.0
 11
3.389999999996263
 21
3.318730800867826
 31
0.0
  0
LINE
  5
15E
330
BC
100
AcDbEntity
  8
freecad trace layer
100
AcDbLine
 10
3.389999999996263
 20
3.288730800867825
 30
0.0
 11
3.389999999996263
 21
3.224330800867833
 31
0.0
  0
LWPOLYLINE
  5
15F
330
BC
100
AcDbEntity
  8
freecad trace layer
100
AcDbPolyline
 90
        4
 70
     1
 43
0.0
 10
5.439999999997525
 20
7.82508730995886
 10
5.439999999997525
 20
5.575669199132488
 10
8.840004000554785
 20
5.575669199132488
 10
8.840004000554785
 20
7.82508730995886
  0
LWPOLYLINE
  5
160
330
BC
100
AcDbEntity
  8
freecad trace layer
100
AcDbPolyline
 90
        7
 70
     0
 43
0.0
 10
3.316073212658381
 20
6.283089371380498
 10
3.347177205434804
 20
6.313479241880174
 10
3.493020371564256
 20
6.313479241880174
 10
3.520127375043188
 20
6.283089371380498
 10
3.316073212658381
 20
6.283089371380498
 10
3.330588409287401
 20
5.966758378191372
 10
3.493480653704609
 20
5.966758378191372
  0
LWPOLYLINE
  5
161
330
BC
100
AcDbEntity
  8
freecad trace layer
100
AcDbPolyline
 90
        4
 70
     0
 43
0.0
 10
3.476038083373425
 20
5.966758378191372
 10
3.476038083373425
 20
5.95266328815751
 10
3.403821938347079
 20
5.95266328815751
 10
3.403821938347079
 20
5.966758378191372
  0
LINE
  5
162
330
BC
100
AcDbEntity
  8
freecad trace layer
100
AcDbLine
 10
3.390221092966414
 20
5.966758378191372
 30
0.0
 11
3.368816161308331
 21
5.937054558143018
 31
0.0
  0
LINE
  5
163
330
BC
100
AcDbEntity
  8
freecad trace layer
100
AcDbLine
 10
3.368816161308331
 20
5.937054558143018
 30
0.0
 11
3.368816161308331
 21
5.90782325651935
 31
0.0
  0
LINE
  5
164
330
BC
100
AcDbEntity
  8
freecad trace layer
100
AcDbLine
 10
3.368816161308331
 20
5.90782325651935
 30
0.0
 11
3.508298503798329
 21
5.625618885888684
 31
0.0
  0
LINE
  5
165
330
BC
100
AcDbEntity
  8
freecad trace layer
100
AcDbLine
 10
3.508298503798329
 20
5.625618885888684
 30
0.0
 11
3.492964626858139
 21
5.610519387939235
 31
0.0
  0
LINE
  5
166
330
BC
100
AcDbEntity
  8
freecad trace layer
100
AcDbLine
 10
3.492964626858139
 20
5.610519387939235
 30
0.0
 11
3.492251163653037
 21
5.598399163299206
 31
0.0
  0
LINE
  5
167
330
BC
100
AcDbEntity
  8
freecad trace layer
100
AcDbLine
 10
3.492251163653037
 20
5.598399163299206
 30
0.0
 11
3.906079152040292
 21
5.598399163299206
 31
0.0
  0
LINE
  5
168
330
BC
100
AcDbEntity
  8
freecad trace layer
100
AcDbLine
 10
3.906079152040292
 20
5.598399163299206
 30
0.0
 11
3.855873638922702
 21
5.737909960476259
 31
0.0
  0
LINE
  5
169
330
BC
100
AcDbEntity
  8
freecad trace layer
100
AcDbLine
 10
3.493480653704609
 20
5.949922786696533
 30
0.0
 11
3.493480653704609
 21
5.949922786696533
 31
0.0
  0
LINE
  5
16A
330
BC
100
AcDbEntity
  8
freecad trace layer
100
AcDbLine
 10
3.493480653704609
 20
5.949922786696533
 30
0.0
 11
3.96789537139199
 21
5.949922756581003
 31
-0.0000000000000046
  0
LWPOLYLINE
  5
16B
330
BC
100
AcDbEntity
  8
freecad trace layer
100
AcDbPolyline
 90
       27
 70
     0
 43
0.0
 10
3.374198046280384
 20
5.896934484261635
 10
3.471177248547264
 20
5.896934484261635
 10
3.471177248547264
 20
5.905480709491314
 10
3.592000361161553
 20
5.905480709491314
 10
3.640607328749496
 20
5.789605753070362
 10
3.676715401262612
 20
5.739647728600261
 10
3.676715401262612
 20
5.720219607973007
 10
3.666299597838901
 20
5.720219607973007
 10
3.648940040522149
 20
5.738260005698322
 10
3.636441059155231
 20
5.754218819070715
 10
3.623942077788314
 20
5.770177632443108
 10
3.608665612122621
 20
5.797238229031052
 10
3.595472238107988
 20
5.817360211109275
 10
3.57741820185143
 20
5.830543578677776
 10
3.550337320050772
 20
5.841645361893342
 10
3.517006818128522
 20
5.841645361893342
 10
3.491314549039117
 20
5.838869916089465
 10
3.46492780100985
 20
5.819441795462211
 10
3.448957028988588
 20
5.796544367580083
 10
3.444096366746606
 20
5.777810108403798
 10
3.444056756931531
 20
5.755594490105835
 10
3.477202063358249
 20
5.68853402802489
 10
3.500341567167396
 20
5.671649212296472
 10
3.529990119381097
 20
5.644301992429348
 10
3.529990119381097
 20
5.625333626020051
 10
3.66631479757487
 20
5.623540861454217
 10
3.558015039361749
 20
5.701049410429874
  0
ARC
  5
16C
330
BC
100
AcDbEntity
  8
freecad trace layer
100
AcDbCircle
 10
3.631058682981518
 20
5.992297002056912
 30
-0.0000000000000046
 40
0.339491577714356
100
AcDbArc
 50
289.6670656039326
 51
352.8298248311294
  0
ARC
  5
16D
330
BC
100
AcDbEntity
  8
freecad trace layer
100
AcDbCircle
 10
3.78530966399147
 20
5.612162919450942
 30
-0.0000000000000046
 40
0.0724799386040432
100
AcDbArc
 50
123.4899166357866
 51
190.9468000714528
  0
LWPOLYLINE
  5
16E
330
BC
100
AcDbEntity
  8
freecad trace layer
100
AcDbPolyline
 90
        4
 70
     0
 43
0.0
 10
8.839999962464162
 20
3.224330800867818
 10
8.840004000554785
 20
5.225683682557332
 10
6.222930985549056
 20
5.225689107186668
 10
6.222930985549056
 20
3.224330800867818
  0
LWPOLYLINE
  5
16F
330
BC
100
AcDbEntity
  8
freecad trace layer
100
AcDbPolyline
 90
        4
 70
     1
 43
0.0
 10
6.187930985549087
 20
5.225689179734132
 10
6.187930985549087
 20
3.224330800867818
 10
6.222930985549056
 20
3.224330800867818
 10
6.222930985549056
 20
5.225689179734132
  0
LWPOLYLINE
  5
170
330
BC
100
AcDbEntity
  8
freecad trace layer
100
AcDbPolyline
 90
        4
 70
     1
 43
0.0
 10
5.487930985549042
 20
5.225690630683545
 10
5.487930985549042
 20
3.225000026803173
 10
5.43999999999761
 20
3.225000026803173
 10
5.43999999999761
 20
5.225690630683545
  0
LWPOLYLINE
  5
171
330
BC
100
AcDbEntity
  8
freecad trace layer
100
AcDbPolyline
 90
        4
 70
     1
 43
0.0
 10
5.487930985549042
 20
5.224330800867818
 10
5.487930985549042
 20
5.225689179734132
 10
6.187930985549087
 20
5.225689179734132
 10
6.187930985549087
 20
5.224330800867818
  0
LWPOLYLINE
  5
172
330
BC
100
AcDbEntity
  8
freecad trace layer
100
AcDbPolyline
 90
        4
 70
     1
 43
0.0
 10
4.689999999997639
 20
5.574347690843524
 10
4.689999999997639
 20
3.234330800867809
 10
4.639999999997627
 20
3.234330800867809
 10
4.639999999997627
 20
5.574347690843524
  0
LWPOLYLINE
  5
173
330
BC
100
AcDbEntity
  8
freecad trace layer
100
AcDbPolyline
 90
        4
 70
     1
 43
0.0
 10
5.389999999997684
 20
5.554330800867689
 10
5.389999999997684
 20
3.225000026803173
 10
5.43999999999761
 20
3.225000026803173
 10
5.43999999999761
 20
5.554330800867689
  0
LWPOLYLINE
  5
174
330
BC
100
AcDbEntity
  8
freecad trace layer
100
AcDbPolyline
 90
        3
 70
     0
 43
0.0
 10
4.689999999997639
 20
5.225692284622795
 10
5.189999999998093
 20
5.225690833673411
 10
5.189999999998093
 20
5.184330800867826
  0
LINE
  5
175
330
BC
100
AcDbEntity
  8
freecad trace layer
100
AcDbLine
 10
5.189999999998093
 20
5.134330800867843
 30
0.0
 11
5.189999999998093
 21
4.98933080086789
 31
0.0
  0
LINE
  5
176
330
BC
100
AcDbEntity
  8
freecad trace layer
100
AcDbLine
 10
5.189999999998093
 20
4.939330800867907
 30
0.0
 11
5.189999999998093
 21
4.794330800867897
 31
0.0
  0
LINE
  5
177
330
BC
100
AcDbEntity
  8
freecad trace layer
100
AcDbLine
 10
5.189999999998093
 20
4.744330800867886
 30
0.0
 11
5.189999999998093
 21
4.599330800867961
 31
0.0
  0
LINE
  5
178
330
BC
100
AcDbEntity
  8
freecad trace layer
100
AcDbLine
 10
5.189999999997497
 20
4.549330800867949
 30
0.0
 11
5.189999999997497
 21
3.224330800867818
 31
0.0
  0
LWPOLYLINE
  5
179
330
BC
100
AcDbEntity
  8
freecad trace layer
100
AcDbPolyline
 90
        4
 70
     1
 43
0.0
 10
4.689999999997639
 20
5.379330800867848
 10
4.689999999997639
 20
5.329330800867865
 10
5.389999999997627
 20
5.329330800867865
 10
5.389999999997627
 20
5.379330800867848
  0
LWPOLYLINE
  5
17A
330
BC
100
AcDbEntity
  8
freecad trace layer
100
AcDbPolyline
 90
        4
 70
     1
 43
0.0
 10
4.689999999997639
 20
5.184330800867826
 10
4.689999999997639
 20
5.134330800867843
 10
5.389999999997627
 20
5.134330800867843
 10
5.389999999997627
 20
5.184330800867826
  0
LWPOLYLINE
  5
17B
330
BC
100
AcDbEntity
  8
freecad trace layer
100
AcDbPolyline
 90
        4
 70
     1
 43
0.0
 10
4.689999999997639
 20
4.989330800867918
 10
4.689999999997639
 20
4.939330800867907
 10
5.389999999997627
 20
4.939330800867907
 10
5.389999999997627
 20
4.989330800867918
  0
LWPOLYLINE
  5
17C
330
BC
100
AcDbEntity
  8
freecad trace layer
100
AcDbPolyline
 90
        4
 70
     1
 43
0.0
 10
4.689999999997639
 20
4.744330800867886
 10
4.689999999997639
 20
4.794330800867897
 10
5.389999999997627
 20
4.794330800867897
 10
5.389999999997627
 20
4.744330800867886
  0
LWPOLYLINE
  5
17D
330
BC
100
AcDbEntity
  8
freecad trace layer
100
AcDbPolyline
 90
        4
 70
     1
 43
0.0
 10
4.689999999997639
 20
4.549330800867949
 10
4.689999999997639
 20
4.599330800867961
 10
5.389999999997627
 20
4.599330800867961
 10
5.389999999997627
 20
4.549330800867949
  0
LWPOLYLINE
  5
17E
330
BC
100
AcDbEntity
  8
freecad trace layer
100
AcDbPolyline
 90
        4
 70
     1
 43
0.0
 10
4.689999999997639
 20
4.354330800867956
 10
4.689999999997639
 20
4.404330800867967
 10
5.389999999997627
 20
4.404330800867967
 10
5.389999999997627
 20
4.354330800867956
  0
LWPOLYLINE
  5
17F
330
BC
100
AcDbEntity
  8
freecad trace layer
100
AcDbPolyline
 90
        4
 70
     1
 43
0.0
 10
4.689999999997639
 20
4.15933080086802
 10
4.689999999997639
 20
4.209330800868031
 10
5.389999999997627
 20
4.209330800868031
 10
5.389999999997627
 20
4.15933080086802
  0
LWPOLYLINE
  5
180
330
BC
100
AcDbEntity
  8
freecad trace layer
100
AcDbPolyline
 90
        4
 70
     1
 43
0.0
 10
4.689999999997667
 20
3.964330800868026
 10
4.689999999997667
 20
4.014330800868009
 10
5.389999999997627
 20
4.014330800868009
 10
5.389999999997627
 20
3.964330800868026
  0
LWPOLYLINE
  5
181
330
BC
100
AcDbEntity
  8
freecad trace layer
100
AcDbPolyline
 90
        4
 70
     1
 43
0.0
 10
4.789999999997605
 20
3.769330800868005
 10
4.789999999997605
 20
3.819330800868016
 10
5.439999999997525
 20
3.819330800868016
 10
5.439999999997525
 20
3.769330800868005
  0
LWPOLYLINE
  5
182
330
BC
100
AcDbEntity
  8
freecad trace layer
100
AcDbPolyline
 90
        4
 70
     1
 43
0.0
 10
4.989999999997565
 20
3.574330800868069
 10
4.989999999997565
 20
3.62433080086808
 10
5.439999999997525
 20
3.62433080086808
 10
5.439999999997525
 20
3.574330800868069
  0
LINE
  5
183
330
BC
100
AcDbEntity
  8
freecad trace layer
100
AcDbLine
 10
4.789999999997605
 20
3.819330800868016
 30
-0.0000000000000111
 11
4.789999999997605
 21
3.964330800868026
 31
-0.0000000000000111
  0
LINE
  5
184
330
BC
100
AcDbEntity
  8
freecad trace layer
100
AcDbLine
 10
4.839999999997616
 20
3.819330800868016
 30
-0.0000000000000111
 11
4.839999999997616
 21
3.964330800868026
 31
-0.0000000000000111
  0
LINE
  5
185
330
BC
100
AcDbEntity
  8
freecad trace layer
100
AcDbLine
 10
4.989999999997565
 20
3.62433080086808
 30
-0.0000000000000111
 11
4.989999999997565
 21
3.769330800868005
 31
-0.0000000000000111
  0
LINE
  5
186
330
BC
100
AcDbEntity
  8
freecad trace layer
100
AcDbLine
 10
5.039999999997576
 20
3.62433080086808
 30
-0.0000000000000065
 11
5.039999999997576
 21
3.769330800868005
 31
-0.0000000000000111
  0
LINE
  5
187
330
BC
100
AcDbEntity
  8
freecad trace layer
100
AcDbLine
 10
9.185375563018624
 20
7.824330800867898
 30
0.0
 11
9.185375563018539
 21
3.224330800867818
 31
0.0
  0
LINE
  5
188
330
BC
100
AcDbEntity
  8
freecad trace layer
100
AcDbLine
 10
9.045375563018524
 20
3.224330800867818
 30
0.0
 11
9.045375563018581
 21
7.824330800867898
 31
0.0
  0
LINE
  5
189
330
BC
100
AcDbEntity
  8
freecad trace layer
100
AcDbLine
 10
9.055375563018572
 20
7.824120257296329
 30
0.0
 11
9.055375563018572
 21
4.224330800867847
 31
0.0
  0
LINE
  5
18A
330
BC
100
AcDbEntity
  8
freecad trace layer
100
AcDbLine
 10
9.105375563018583
 20
4.224330800867847
 30
0.0
 11
9.105375563018583
 21
7.824120257296329
 31
0.0
  0
LINE
  5
18B
330
BC
100
AcDbEntity
  8
freecad trace layer
100
AcDbLine
 10
9.055375563018487
 20
7.809757187036695
 30
0.0
 11
9.105375563018583
 21
7.809546643465126
 31
0.0
  0
LINE
  5
18C
330
BC
100
AcDbEntity
  8
freecad trace layer
100
AcDbLine
 10
9.045375563018553
 20
4.224330800867847
 30
0.0
 11
9.185375563018539
 21
4.224330800867847
 31
0.0
  0
LWPOLYLINE
  5
18D
330
BC
100
AcDbEntity
  8
freecad trace layer
100
AcDbPolyline
 90
        9
 70
     0
 43
0.0
 10
9.185375563018539
 20
4.174330801023103
 10
9.18999999978189
 20
4.174330801023103
 10
12.68999999998746
 20
1.655352947157368
 10
12.2391328360325
 20
1.02889445268795
 10
12.21478343430115
 20
1.046418910891447
 10
12.64812614005263
 20
1.648528003629551
 10
9.189999999781861
 20
4.137368907259656
 10
9.185375563018539
 20
4.137368907259656
 10
9.185375563018539
 20
4.174330801023103
  0
LWPOLYLINE
  5
18E
330
BC
100
AcDbEntity
  8
freecad trace layer
100
AcDbPolyline
 90
       11
 70
     0
 43
0.0
 10
9.185375563018539
 20
3.98178450372265
 10
9.189999999781861
 20
3.988209938804488
 10
11.17853447450457
 20
2.557045852181545
 10
10.81636233829823
 20
2.05382488306833
 10
9.185375563018539
 20
3.227659044963929
 10
9.185375563018539
 20
3.264620938727518
 10
10.8095373947705
 20
2.095698743003197
 10
11.13666061456973
 20
2.550220908653756
 10
9.196824943309593
 20
3.946336078869649
 10
9.185375563018539
 20
3.930427709147551
 10
9.185375563018539
 20
3.98178450372265
  0
LWPOLYLINE
  5
18F
330
BC
100
AcDbEntity
  8
freecad trace layer
100
AcDbPolyline
 90
        5
 70
     0
 43
0.0
 10
11.24925406817837
 20
2.655307366268374
 10
10.88708193197144
 20
2.152086397154733
 10
12.28595400384594
 20
1.145307034516321
 10
12.64812614005263
 20
1.648528003629579
 10
11.24925406817837
 20
2.655307366268374
  0
LWPOLYLINE
  5
190
330
BC
100
AcDbEntity
  8
freecad trace layer
100
AcDbPolyline
 90
        5
 70
     0
 43
0.0
 10
11.25607901170616
 20
2.613433506333507
 10
10.92895579190628
 20
2.158911340682465
 10
12.27912906031827
 20
1.18718089445116
 10
12.60625228011781
 20
1.641703060101847
 10
11.25607901170616
 20
2.613433506333507
  0
LWPOLYLINE
  5
191
330
BC
100
AcDbEntity
  8
freecad trace layer
100
AcDbPolyline
 90
        4
 70
     1
 43
0.0
 10
9.189999999997525
 20
3.150349744120945
 10
9.189999999997525
 20
3.05034974412095
 10
9.19499999999752
 20
3.05034974412095
 10
9.19499999999752
 20
3.150349744120945
  0
LWPOLYLINE
  5
192
330
BC
100
AcDbEntity
  8
freecad trace layer
100
AcDbPolyline
 90
        4
 70
     1
 43
0.0
 10
9.19499999999752
 20
3.150349744120945
 10
9.19499999999752
 20
3.05034974412095
 10
9.264999999997514
 20
3.05034974412095
 10
9.264999999997514
 20
3.150349744120945
  0
LINE
  5
193
330
BC
100
AcDbEntity
  8
freecad trace layer
100
AcDbLine
 10
9.229999999997517
 20
3.140349744120954
 30
0.0
 11
9.229999999997517
 21
3.110349744120981
 31
0.0
  0
LINE
  5
194
330
BC
100
AcDbEntity
  8
freecad trace layer
100
AcDbLine
 10
9.229999999997517
 20
3.090349744120942
 30
0.0
 11
9.229999999997517
 21
3.06034974412097
 31
0.0
  0
LINE
  5
195
330
BC
100
AcDbEntity
  8
freecad trace layer
100
AcDbLine
 10
9.244999999997503
 20
3.075349744120956
 30
0.0
 11
9.21499999999753
 21
3.075349744120956
 31
0.0
  0
LINE
  5
196
330
BC
100
AcDbEntity
  8
freecad trace layer
100
AcDbLine
 10
9.21499999999753
 20
3.125349744120967
 30
0.0
 11
9.244999999997503
 21
3.125349744120967
 31
0.0
  0
CIRCLE
  5
197
330
BC
100
AcDbEntity
  8
freecad trace layer
100
AcDbCircle
 10
9.229999999997517
 20
3.125349744120967
 30
0.0
 40
0.0049999999999955
  0
CIRCLE
  5
198
330
BC
100
AcDbEntity
  8
freecad trace layer
100
AcDbCircle
 10
9.229999999997517
 20
3.075349744120956
 30
0.0
 40
0.0049999999999955
  0
LINE
  5
199
330
BC
100
AcDbEntity
  8
freecad trace layer
100
AcDbLine
 10
9.189999999997497
 20
2.977884052055686
 30
0.0
 11
12.3477128488604
 21
0.7043308008672398
 31
0.0
  0
LINE
  5
19A
330
BC
100
AcDbEntity
  8
freecad trace layer
100
AcDbLine
 10
12.3477128488604
 20
0.7043308008672398
 30
0.0
 11
12.68999999998744
 21
0.7043308008671971
 31
0.0
  0
LINE
  5
19B
330
BC
100
AcDbEntity
  8
freecad trace layer
100
AcDbLine
 10
12.68999999998744
 20
0.7043308008671971
 30
0.0
 11
10.81636233829823
 21
2.05382488306833
 31
0.0
  0
LWPOLYLINE
  5
19C
330
BC
100
AcDbEntity
  8
freecad trace layer
100
AcDbPolyline
 90
        9
 70
     0
 43
0.0
 10
3.139999999996263
 20
0.8749980309482055
 10
3.139999999996292
 20
0.575000000000017
 10
3.289999999996269
 20
0.5749999999999886
 10
3.289999999996269
 20
0.7750000000000057
 10
9.039999999997548
 20
0.7750000000000057
 10
9.039999999997548
 20
0.575000000000017
 10
9.189999999997553
 20
0.575000000000017
 10
9.189999999997553
 20
0.8750000000000284
 10
3.139999999996263
 20
0.8749980309482055
  0
LWPOLYLINE
  5
19D
330
BC
100
AcDbEntity
  8
freecad trace layer
100
AcDbPolyline
 90
       24
 70
     0
 43
0.0
 10
3.139999999996263
 20
0.5749999999999886
 10
3.13999999999632
 20
0.4249999999999972
 10
2.940837372877979
 20
0.4249999999999829
 10
2.940837372877979
 20
0.0749999999999886
 10
3.690837372877979
 20
0.0749999999999886
 10
3.690837372877979
 20
0.4249999999999829
 10
3.491674745759667
 20
0.4249999999999972
 10
3.491674745759667
 20
0.5749999999999886
 10
5.189999999996644
 20
0.5749999999999886
 10
5.189999999996616
 20
0.3499999999999943
 10
4.945089441534265
 20
0.3499999999999943
 10
4.945089441534265
 20
0.0
 10
5.695089441534265
 20
0.0
 10
5.695089441534265
 20
0.3499999999999943
 10
5.439999999997525
 20
0.3499999999999943
 10
5.439999999997525
 20
0.5749999999999886
 10
8.838325254234206
 20
0.5749999999999886
 10
8.838325254234206
 20
0.4249999999999972
 10
8.639162627115866
 20
0.4249999999999829
 10
8.639162627115866
 20
0.0749999999999886
 10
9.389162627115866
 20
0.0749999999999886
 10
9.389162627115866
 20
0.4249999999999829
 10
9.189999999997553
 20
0.4249999999999829
 10
9.189999999997553
 20
0.575000000000017
  0
LINE
  5
19E
330
BC
100
AcDbEntity
  8
freecad trace layer
100
AcDbLine
 10
9.045375563018496
 20
2.875000000000028
 30
0.0
 11
9.045375563018496
 21
0.8750000000000284
 31
0.0
  0
LINE
  5
19F
330
BC
100
AcDbEntity
  8
freecad trace layer
100
AcDbLine
 10
9.055375563018288
 20
2.875000000000028
 30
0.0
 11
9.055375563018288
 21
0.8750000000000284
 31
0.0
  0
LINE
  5
1A0
330
BC
100
AcDbEntity
  8
freecad trace layer
100
AcDbLine
 10
9.105375563018498
 20
2.875000000000028
 30
0.0
 11
9.105375563018498
 21
0.8750000000000284
 31
0.0
  0
LINE
  5
1A1
330
BC
100
AcDbEntity
  8
freecad trace layer
100
AcDbLine
 10
9.18537556301851
 20
2.875000000000028
 30
0.0
 11
9.18537556301851
 21
0.8750000000000284
 31
0.0
  0
LINE
  5
1A2
330
BC
100
AcDbEntity
  8
freecad trace layer
100
AcDbLine
 10
9.045375563018496
 20
1.67500000000004
 30
0.0
 11
9.18537556301851
 21
1.67500000000004
 31
0.0
  0
LWPOLYLINE
  5
1A3
330
BC
100
AcDbEntity
  8
freecad trace layer
100
AcDbPolyline
 90
        4
 70
     1
 43
0.0
 10
9.055375563018487
 20
1.690000000000026
 10
9.055375563018487
 20
1.67500000000004
 10
9.105375563018498
 20
1.67500000000004
 10
9.105375563018498
 20
1.690000000000026
  0
LWPOLYLINE
  5
1A4
330
BC
100
AcDbEntity
  8
freecad trace layer
100
AcDbPolyline
 90
        4
 70
     1
 43
0.0
 10
9.055375563018288
 20
2.875000000000028
 10
9.055375563018288
 20
2.86000000000007
 10
9.105375563018498
 20
2.86000000000007
 10
9.105375563018498
 20
2.875000000000028
  0
LWPOLYLINE
  5
1A5
330
BC
100
AcDbEntity
  8
freecad trace layer
100
AcDbPolyline
 90
        4
 70
     0
 43
0.0
 10
5.439999999997525
 20
0.875
 10
5.439999999997525
 20
2.875000000000028
 10
8.839999962464162
 20
2.875000000000142
 10
8.839999962464162
 20
0.8750000000002558
  0
LINE
  5
1A6
330
BC
100
AcDbEntity
  8
freecad trace layer
100
AcDbLine
 10
7.039999962464151
 20
2.875000000000114
 30
0.0
 11
7.039999962464151
 21
0.8750000000002274
 31
0.0
  0
LINE
  5
1A7
330
BC
100
AcDbEntity
  8
freecad trace layer
100
AcDbLine
 10
7.23999996246414
 20
2.875000000000114
 30
0.0
 11
7.23999996246414
 21
0.8750000000002274
 31
0.0
  0
LINE
  5
1A8
330
BC
100
AcDbEntity
  8
freecad trace layer
100
AcDbLine
 10
7.639999962464145
 20
2.875000000000114
 30
0.0
 11
7.639999962464145
 21
0.8750000000002274
 31
0.0
  0
LINE
  5
1A9
330
BC
100
AcDbEntity
  8
freecad trace layer
100
AcDbLine
 10
8.039999962464151
 20
2.875000000000114
 30
0.0
 11
8.039999962464151
 21
0.8750000000002274
 31
0.0
  0
LINE
  5
1AA
330
BC
100
AcDbEntity
  8
freecad trace layer
100
AcDbLine
 10
8.439999962464157
 20
2.875000000000114
 30
0.0
 11
8.439999962464157
 21
0.8750000000002274
 31
0.0
  0
LINE
  5
1AB
330
BC
100
AcDbEntity
  8
freecad trace layer
100
AcDbLine
 10
7.039999962464151
 20
2.675000000000125
 30
0.0
 11
8.839999962464162
 21
2.675000000000153
 31
0.0
  0
LINE
  5
1AC
330
BC
100
AcDbEntity
  8
freecad trace layer
100
AcDbLine
 10
7.039999962464151
 20
2.475000000000136
 30
0.0
 11
8.839999962464162
 21
2.475000000000165
 31
0.0
  0
LINE
  5
1AD
330
BC
100
AcDbEntity
  8
freecad trace layer
100
AcDbLine
 10
7.039999962464151
 20
2.275000000000148
 30
0.0
 11
8.839999962464162
 21
2.275000000000176
 31
0.0
  0
LINE
  5
1AE
330
BC
100
AcDbEntity
  8
freecad trace layer
100
AcDbLine
 10
7.039999962464151
 20
2.075000000000159
 30
0.0
 11
8.839999962464162
 21
2.075000000000188
 31
0.0
  0
LINE
  5
1AF
330
BC
100
AcDbEntity
  8
freecad trace layer
100
AcDbLine
 10
7.039999962464151
 20
1.875000000000171
 30
0.0
 11
8.839999962464162
 21
1.875000000000199
 31
0.0
  0
LINE
  5
1B0
330
BC
100
AcDbEntity
  8
freecad trace layer
100
AcDbLine
 10
7.039999962464151
 20
1.675000000000182
 30
0.0
 11
8.839999962464162
 21
1.67500000000021
 31
0.0
  0
LINE
  5
1B1
330
BC
100
AcDbEntity
  8
freecad trace layer
100
AcDbLine
 10
7.039999962464151
 20
1.475000000000193
 30
0.0
 11
8.839999962464162
 21
1.475000000000222
 31
0.0
  0
LINE
  5
1B2
330
BC
100
AcDbEntity
  8
freecad trace layer
100
AcDbLine
 10
7.039999962464151
 20
1.275000000000205
 30
0.0
 11
8.839999962464162
 21
1.275000000000233
 31
0.0
  0
LINE
  5
1B3
330
BC
100
AcDbEntity
  8
freecad trace layer
100
AcDbLine
 10
7.039999962464151
 20
1.075000000000216
 30
0.0
 11
8.839999962464162
 21
1.075000000000244
 31
0.0
  0
LINE
  5
1B4
330
BC
100
AcDbEntity
  8
freecad trace layer
100
AcDbLine
 10
9.045375563018467
 20
2.675000000000068
 30
0.0
 11
9.055375563018657
 21
2.675000000000068
 31
0.0
  0
LINE
  5
1B5
330
BC
100
AcDbEntity
  8
freecad trace layer
100
AcDbLine
 10
9.105375563018498
 20
2.675000000000068
 30
0.0
 11
9.185375563018482
 21
2.675000000000068
 31
0.0
  0
LINE
  5
1B6
330
BC
100
AcDbEntity
  8
freecad trace layer
100
AcDbLine
 10
9.105375563018498
 20
2.475000000000051
 30
0.0
 11
9.185375563018482
 21
2.475000000000051
 31
0.0
  0
LINE
  5
1B7
330
BC
100
AcDbEntity
  8
freecad trace layer
100
AcDbLine
 10
9.045375563018467
 20
2.475000000000051
 30
0.0
 11
9.055375563018657
 21
2.475000000000051
 31
0.0
  0
LINE
  5
1B8
330
BC
100
AcDbEntity
  8
freecad trace layer
100
AcDbLine
 10
9.105375563018498
 20
2.275000000000063
 30
0.0
 11
9.185375563018482
 21
2.275000000000063
 31
0.0
  0
LINE
  5
1B9
330
BC
100
AcDbEntity
  8
freecad trace layer
100
AcDbLine
 10
9.045375563018467
 20
2.275000000000063
 30
0.0
 11
9.055375563018657
 21
2.275000000000063
 31
0.0
  0
LINE
  5
1BA
330
BC
100
AcDbEntity
  8
freecad trace layer
100
AcDbLine
 10
9.105375563018526
 20
2.075000000000045
 30
0.0
 11
9.18537556301851
 21
2.075000000000045
 31
0.0
  0
LINE
  5
1BB
330
BC
100
AcDbEntity
  8
freecad trace layer
100
AcDbLine
 10
9.045375563018496
 20
2.075000000000045
 30
0.0
 11
9.055375563018686
 21
2.075000000000045
 31
0.0
  0
LINE
  5
1BC
330
BC
100
AcDbEntity
  8
freecad trace layer
100
AcDbLine
 10
9.105375563018413
 20
1.875000000000057
 30
0.0
 11
9.185375563018397
 21
1.875000000000057
 31
0.0
  0
LINE
  5
1BD
330
BC
100
AcDbEntity
  8
freecad trace layer
100
AcDbLine
 10
9.045375563018382
 20
1.875000000000057
 30
0.0
 11
9.055375563018572
 21
1.875000000000057
 31
0.0
  0
LINE
  5
1BE
330
BC
100
AcDbEntity
  8
freecad trace layer
100
AcDbLine
 10
9.105375563018526
 20
1.475000000000051
 30
0.0
 11
9.18537556301851
 21
1.475000000000051
 31
0.0
  0
LINE
  5
1BF
330
BC
100
AcDbEntity
  8
freecad trace layer
100
AcDbLine
 10
9.045375563018496
 20
1.475000000000051
 30
0.0
 11
9.055375563018686
 21
1.475000000000051
 31
0.0
  0
LINE
  5
1C0
330
BC
100
AcDbEntity
  8
freecad trace layer
100
AcDbLine
 10
9.105375563018526
 20
1.275000000000034
 30
0.0
 11
9.18537556301851
 21
1.275000000000034
 31
0.0
  0
LINE
  5
1C1
330
BC
100
AcDbEntity
  8
freecad trace layer
100
AcDbLine
 10
9.045375563018496
 20
1.275000000000034
 30
0.0
 11
9.055375563018686
 21
1.275000000000034
 31
0.0
  0
LINE
  5
1C2
330
BC
100
AcDbEntity
  8
freecad trace layer
100
AcDbLine
 10
9.105375563018526
 20
1.075000000000017
 30
0.0
 11
9.18537556301851
 21
1.075000000000017
 31
0.0
  0
LINE
  5
1C3
330
BC
100
AcDbEntity
  8
freecad trace layer
100
AcDbLine
 10
9.045375563018496
 20
1.075000000000017
 30
0.0
 11
9.055375563018686
 21
1.075000000000017
 31
0.0
  0
LWPOLYLINE
  5
1C4
330
BC
100
AcDbEntity
  8
freecad trace layer
100
AcDbPolyline
 90
        4
 70
     0
 43
0.0
 10
5.189999999997497
 20
0.875
 10
5.189999999997497
 20
2.875000000000028
 10
3.389999999996263
 20
2.875000000000028
 10
3.389999999996263
 20
0.875
  0
LWPOLYLINE
  5
1C5
330
BC
100
AcDbEntity
  8
freecad trace layer
100
AcDbPolyline
 90
        4
 70
     1
 43
0.0
 10
4.159467042130188
 20
1.765897176197484
 10
4.159467042130188
 20
1.715897176197416
 10
5.15740993345139
 20
1.715897176197416
 10
5.15740993345139
 20
1.765897176197484
  0
LWPOLYLINE
  5
1C6
330
BC
100
AcDbEntity
  8
freecad trace layer
100
AcDbPolyline
 90
        9
 70
     0
 43
0.0
 10
4.159467042130188
 20
0.875
 10
4.159467042130188
 20
1.707938964310756
 10
5.15740993345139
 20
1.707938964310756
 10
5.157409933451333
 20
0.8750000000000284
 10
5.127409933451332
 20
0.8750000000000284
 10
5.127409933451389
 20
0.93940562744109
 10
4.18946704213019
 20
0.9394056274411469
 10
4.18946704213019
 20
0.875
 10
4.159467042130188
 20
0.875
  0
LWPOLYLINE
  5
1C7
330
BC
100
AcDbEntity
  8
freecad trace layer
100
AcDbPolyline
 90
        4
 70
     1
 43
0.0
 10
4.18946704213019
 20
0.969405627441148
 10
4.18946704213019
 20
1.677938964310727
 10
5.127409933451389
 20
1.677938964310727
 10
5.127409933451389
 20
0.969405627441148
  0
LINE
  5
1C8
330
BC
100
AcDbEntity
  8
freecad trace layer
100
AcDbLine
 10
4.676570659793725
 20
1.715897176197416
 30
0.0
 11
4.676570659793725
 21
1.707938964310756
 31
0.0
  0
LINE
  5
1C9
330
BC
100
AcDbEntity
  8
freecad trace layer
100
AcDbLine
 10
5.02697344206797
 20
1.715897176197416
 30
0.0
 11
5.02697344206797
 21
1.707938964310756
 31
0.0
  0
LINE
  5
1CA
330
BC
100
AcDbEntity
  8
freecad trace layer
100
AcDbLine
 10
4.676570659793725
 20
1.677938964310755
 30
0.0
 11
4.676570659793725
 21
1.625421350694921
 31
0.0
  0
LINE
  5
1CB
330
BC
100
AcDbEntity
  8
freecad trace layer
100
AcDbLine
 10
5.02697344206797
 20
1.677938964310727
 30
0.0
 11
5.02697344206797
 21
1.625421350694921
 31
0.0
  0
ARC
  5
1CC
330
BC
100
AcDbEntity
  8
freecad trace layer
100
AcDbCircle
 10
4.726570659793722
 20
1.625421350694907
 30
0.0
 40
0.0499999999999966
100
AcDbArc
 50
179.9999999999837
 51
269.9999999999837
  0
ARC
  5
1CD
330
BC
100
AcDbEntity
  8
freecad trace layer
100
AcDbCircle
 10
4.976973442067958
 20
1.625421350694918
 30
0.0
 40
0.0500000000000087
100
AcDbArc
 50
270.0
 51
0.0000000000040711
  0
LINE
  5
1CE
330
BC
100
AcDbEntity
  8
freecad trace layer
100
AcDbLine
 10
4.726570659793708
 20
1.57542135069491
 30
0.0
 11
4.976973442067958
 21
1.57542135069491
 31
0.0
  0
LINE
  5
1CF
330
BC
100
AcDbEntity
  8
freecad trace layer
100
AcDbLine
 10
4.814168379604439
 20
1.57542135069491
 30
0.0
 11
4.814168379604439
 21
1.569721408809784
 31
0.0
  0
LINE
  5
1D0
330
BC
100
AcDbEntity
  8
freecad trace layer
100
AcDbLine
 10
4.814168379604439
 20
1.569721408809784
 30
0.0
 11
4.888972939983006
 21
1.569721408809784
 31
0.0
  0
LINE
  5
1D1
330
BC
100
AcDbEntity
  8
freecad trace layer
100
AcDbLine
 10
4.888972939983006
 20
1.569721408809784
 30
0.0
 11
4.888972939983006
 21
1.57542135069491
 31
0.0
  0
LINE
  5
1D2
330
BC
100
AcDbEntity
  8
freecad trace layer
100
AcDbLine
 10
4.819575421739813
 20
1.569721408809784
 30
0.0
 11
4.822535241846396
 21
1.562820268549501
 31
0.0
  0
LINE
  5
1D3
330
BC
100
AcDbEntity
  8
freecad trace layer
100
AcDbLine
 10
4.822535241846396
 20
1.562820268549501
 30
0.0
 11
4.880606077741049
 21
1.562820268549501
 31
0.0
  0
LINE
  5
1D4
330
BC
100
AcDbEntity
  8
freecad trace layer
100
AcDbLine
 10
4.880606077741049
 20
1.562820268549501
 30
0.0
 11
4.883565897847632
 21
1.569721408809784
 31
0.0
  0
LINE
  5
1D5
330
BC
100
AcDbEntity
  8
freecad trace layer
100
AcDbLine
 10
4.826570659793646
 20
1.562820268549501
 30
0.0
 11
4.826570659793646
 21
1.5431647456127
 31
0.0
  0
LINE
  5
1D6
330
BC
100
AcDbEntity
  8
freecad trace layer
100
AcDbLine
 10
4.876570659793657
 20
1.562820268549501
 30
0.0
 11
4.876570659793657
 21
1.5431647456127
 31
0.0
  0
LINE
  5
1D7
330
BC
100
AcDbEntity
  8
freecad trace layer
100
AcDbLine
 10
4.876570659793657
 20
1.5431647456127
 30
0.0
 11
4.826570659793646
 21
1.5431647456127
 31
0.0
  0
LWPOLYLINE
  5
1D8
330
BC
100
AcDbEntity
  8
freecad trace layer
100
AcDbPolyline
 90
        4
 70
     1
 43
0.0
 10
4.821015774325303
 20
1.5431647456127
 10
4.821015774325303
 20
1.512758846037173
 10
4.882125545262141
 20
1.512758846037173
 10
4.882125545262141
 20
1.5431647456127
  0
LWPOLYLINE
  5
1D9
330
BC
100
AcDbEntity
  8
freecad trace layer
100
AcDbPolyline
 90
        4
 70
     1
 43
0.0
 10
4.826570659793646
 20
1.512758846037173
 10
4.826570659793646
 20
1.489677733353545
 10
4.876570659793657
 20
1.489677733353545
 10
4.876570659793657
 20
1.512758846037173
  0
LWPOLYLINE
  5
1DA
330
BC
100
AcDbEntity
  8
freecad trace layer
100
AcDbPolyline
 90
        4
 70
     1
 43
0.0
 10
4.821015774325303
 20
1.489677733353545
 10
4.821015774325303
 20
1.465437025020407
 10
4.882125545262141
 20
1.465437025020407
 10
4.882125545262141
 20
1.489677733353545
  0
LWPOLYLINE
  5
1DB
330
BC
100
AcDbEntity
  8
freecad trace layer
100
AcDbPolyline
 90
        4
 70
     1
 43
0.0
 10
4.826570659793674
 20
1.465437025020407
 10
4.826570659793674
 20
1.46355472525957
 10
4.876570659793686
 20
1.46355472525957
 10
4.876570659793686
 20
1.465437025020407
  0
LWPOLYLINE
  5
1DC
330
BC
100
AcDbEntity
  8
freecad trace layer
100
AcDbPolyline
 90
        7
 70
     0
 43
0.0
 10
4.804169674823214
 20
1.407321964997919
 10
4.898971644764117
 20
1.407321964997919
 10
4.898971644764117
 20
1.412096441050721
 10
4.876570659793657
 20
1.46355472525957
 10
4.826570659793674
 20
1.46355472525957
 10
4.804169674823214
 20
1.412096441050721
 10
4.804169674823214
 20
1.407321964997919
  0
LWPOLYLINE
  5
1DD
330
BC
100
AcDbEntity
  8
freecad trace layer
100
AcDbPolyline
 90
        4
 70
     1
 43
0.0
 10
4.800614459360474
 20
1.407321964997919
 10
4.800614459360474
 20
1.395394749853892
 10
4.90252686022697
 20
1.395394749853892
 10
4.90252686022697
 20
1.407321964997919
  0
LINE
  5
1DE
330
BC
100
AcDbEntity
  8
freecad trace layer
100
AcDbLine
 10
4.8106249000395
 20
1.395394749853892
 30
0.0
 11
4.810624900039514
 21
1.33018632164584
 31
0.0
  0
LINE
  5
1DF
330
BC
100
AcDbEntity
  8
freecad trace layer
100
AcDbLine
 10
4.892516419547945
 20
1.395394749853892
 30
0.0
 11
4.89251641954796
 21
1.33018632164584
 31
0.0
  0
ARC
  5
1E0
330
BC
100
AcDbEntity
  8
freecad trace layer
100
AcDbCircle
 10
4.851570659793737
 20
1.330186321645829
 30
0.0
 40
0.0409457597542158
100
AcDbArc
 50
179.9999999999851
 51
0.000000000014914
  0
LWPOLYLINE
  5
1E1
330
BC
100
AcDbEntity
  8
freecad trace layer
100
AcDbPolyline
 90
        8
 70
     0
 43
0.0
 10
4.698003604781547
 20
1.765897176197427
 10
4.698003604781547
 20
1.791984132719165
 10
4.945829691738084
 20
1.791984132719165
 10
4.945829691738084
 20
1.805027610980034
 10
4.971916648259821
 20
1.805027610980034
 10
4.971916648259821
 20
1.791984132719165
 10
5.011047083042456
 20
1.791984132719165
 10
5.011047083042456
 20
1.765897176197427
  0
LWPOLYLINE
  5
1E2
330
BC
100
AcDbEntity
  8
freecad trace layer
100
AcDbPolyline
 90
        4
 70
     1
 43
0.0
 10
4.711047083042445
 20
1.831114567501771
 10
4.711047083042445
 20
1.850679784893089
 10
4.737134039564182
 20
1.850679784893089
 10
4.737134039564182
 20
1.831114567501771
  0
LWPOLYLINE
  5
1E3
330
BC
100
AcDbEntity
  8
freecad trace layer
100
AcDbPolyline
 90
        4
 70
     1
 43
0.0
 10
4.971916648259821
 20
1.831114567501771
 10
4.971916648259821
 20
1.850679784893089
 10
4.998003604781559
 20
1.850679784893089
 10
4.998003604781559
 20
1.831114567501771
  0
LWPOLYLINE
  5
1E4
330
BC
100
AcDbEntity
  8
freecad trace layer
100
AcDbPolyline
 90
        9
 70
     0
 43
0.0
 10
4.724090561303285
 20
1.850713697936555
 10
4.724090561303285
 20
1.857201524023509
 10
4.77626447434676
 20
1.857201524023509
 10
4.77626447434676
 20
1.805027610980034
 10
4.724090561303285
 20
1.805027610980034
 10
4.724090561303285
 20
1.831114567501771
 10
4.737134039564182
 20
1.831114567501771
 10
4.737134039564182
 20
1.850679784893089
 10
4.724090561303285
 20
1.850713697936555
  0
LINE
  5
1E5
330
BC
100
AcDbEntity
  8
freecad trace layer
100
AcDbLine
 10
4.737134039564182
 20
1.791984132719165
 30
0.0
 11
4.737134039564182
 21
1.805027610980034
 31
0.0
  0
LINE
  5
1E6
330
BC
100
AcDbEntity
  8
freecad trace layer
100
AcDbLine
 10
4.737134039564182
 20
1.805027610980034
 30
0.0
 11
4.76322099608592
 21
1.805027610980034
 31
0.0
  0
LINE
  5
1E7
330
BC
100
AcDbEntity
  8
freecad trace layer
100
AcDbLine
 10
4.76322099608592
 20
1.805027610980034
 30
0.0
 11
4.76322099608592
 21
1.791984132719165
 31
0.0
  0
LINE
  5
1E8
330
BC
100
AcDbEntity
  8
freecad trace layer
100
AcDbLine
 10
4.76322099608592
 20
1.791984132719165
 30
0.0
 11
4.737134039564182
 21
1.791984132719165
 31
0.0
  0
LWPOLYLINE
  5
1E9
330
BC
100
AcDbEntity
  8
freecad trace layer
100
AcDbPolyline
 90
        4
 70
     1
 43
0.0
 10
4.932786213477186
 20
1.857201524023509
 10
4.932786213477186
 20
1.805027610980034
 10
4.984960126520718
 20
1.805027610980034
 10
4.984960126520718
 20
1.857201524023509
  0
LWPOLYLINE
  5
1EA
330
BC
100
AcDbEntity
  8
freecad trace layer
100
AcDbPolyline
 90
        4
 70
     1
 43
0.0
 10
4.730612300433734
 20
1.922418915327853
 10
4.730612300433734
 20
1.909375437066984
 10
4.756699256955471
 20
1.909375437066984
 10
4.756699256955471
 20
1.922418915327853
  0
LWPOLYLINE
  5
1EB
330
BC
100
AcDbEntity
  8
freecad trace layer
100
AcDbPolyline
 90
        4
 70
     1
 43
0.0
 10
4.730612300433734
 20
1.935462393588722
 10
4.730612300433734
 20
1.922418915327853
 10
4.756699256955471
 20
1.922418915327853
 10
4.756699256955471
 20
1.935462393588722
  0
LWPOLYLINE
  5
1EC
330
BC
100
AcDbEntity
  8
freecad trace layer
100
AcDbPolyline
 90
        4
 70
     1
 43
0.0
 10
4.874090561303319
 20
1.857201524023509
 10
4.874090561303319
 20
1.791984132719165
 10
4.834960126520684
 20
1.791984132719165
 10
4.834960126520684
 20
1.857201524023509
  0
LINE
  5
1ED
330
BC
100
AcDbEntity
  8
freecad trace layer
100
AcDbLine
 10
3.145375563017211
 20
2.875000000000028
 30
0.0
 11
3.145375563017211
 21
0.8750000000000284
 31
0.0
  0
LINE
  5
1EE
330
BC
100
AcDbEntity
  8
freecad trace layer
100
AcDbLine
 10
3.285375563017226
 20
2.875000000000028
 30
0.0
 11
3.285375563017226
 21
0.8750000000000284
 31
0.0
  0
LINE
  5
1EF
330
BC
100
AcDbEntity
  8
freecad trace layer
100
AcDbLine
 10
3.145375563017211
 20
1.67500000000004
 30
0.0
 11
3.285375563017226
 21
1.67500000000004
 31
0.0
  0
LINE
  5
1F0
330
BC
100
AcDbEntity
  8
freecad trace layer
100
AcDbLine
 10
3.145375563017211
 20
1.475000000000051
 30
0.0
 11
3.285375563017226
 21
1.475000000000051
 31
0.0
  0
LINE
  5
1F1
330
BC
100
AcDbEntity
  8
freecad trace layer
100
AcDbLine
 10
3.145375563017211
 20
1.275000000000034
 30
0.0
 11
3.285375563017226
 21
1.275000000000034
 31
0.0
  0
LINE
  5
1F2
330
BC
100
AcDbEntity
  8
freecad trace layer
100
AcDbLine
 10
3.145375563017211
 20
1.075000000000017
 30
0.0
 11
3.285375563017226
 21
1.075000000000017
 31
0.0
  0
LINE
  5
1F3
330
BC
100
AcDbEntity
  8
freecad trace layer
100
AcDbLine
 10
3.275375563017164
 20
1.875000000000057
 30
0.0
 11
3.285375563017226
 21
1.875000000000057
 31
0.0
  0
LINE
  5
1F4
330
BC
100
AcDbEntity
  8
freecad trace layer
100
AcDbLine
 10
3.145375563017211
 20
1.875000000000057
 30
0.0
 11
3.225375563017224
 21
1.875000000000057
 31
0.0
  0
LINE
  5
1F5
330
BC
100
AcDbEntity
  8
freecad trace layer
100
AcDbLine
 10
3.275375563017136
 20
2.075000000000045
 30
0.0
 11
3.285375563017226
 21
2.075000000000045
 31
0.0
  0
LINE
  5
1F6
330
BC
100
AcDbEntity
  8
freecad trace layer
100
AcDbLine
 10
3.145375563017211
 20
2.075000000000045
 30
0.0
 11
3.225375563017224
 21
2.075000000000045
 31
0.0
  0
LINE
  5
1F7
330
BC
100
AcDbEntity
  8
freecad trace layer
100
AcDbLine
 10
3.27537556301705
 20
2.475000000000051
 30
0.0
 11
3.285375563017226
 21
2.475000000000051
 31
0.0
  0
LINE
  5
1F8
330
BC
100
AcDbEntity
  8
freecad trace layer
100
AcDbLine
 10
3.145375563017211
 20
2.475000000000051
 30
0.0
 11
3.225375563017224
 21
2.475000000000051
 31
0.0
  0
LINE
  5
1F9
330
BC
100
AcDbEntity
  8
freecad trace layer
100
AcDbLine
 10
3.275375563017022
 20
2.675000000000068
 30
0.0
 11
3.285375563017226
 21
2.675000000000068
 31
0.0
  0
LINE
  5
1FA
330
BC
100
AcDbEntity
  8
freecad trace layer
100
AcDbLine
 10
3.145375563017211
 20
2.675000000000068
 30
0.0
 11
3.225375563017224
 21
2.675000000000068
 31
0.0
  0
LINE
  5
1FB
330
BC
100
AcDbEntity
  8
freecad trace layer
100
AcDbLine
 10
3.275375563017093
 20
2.275000000000063
 30
0.0
 11
3.285375563017226
 21
2.275000000000063
 31
0.0
  0
LINE
  5
1FC
330
BC
100
AcDbEntity
  8
freecad trace layer
100
AcDbLine
 10
3.145375563017211
 20
2.275000000000063
 30
0.0
 11
3.225375563017224
 21
2.275000000000063
 31
0.0
  0
LINE
  5
1FD
330
BC
100
AcDbEntity
  8
freecad trace layer
100
AcDbLine
 10
3.225375563017224
 20
2.875000000000028
 30
0.0
 11
3.225375563017224
 21
1.67500000000004
 31
0.0
  0
LINE
  5
1FE
330
BC
100
AcDbEntity
  8
freecad trace layer
100
AcDbLine
 10
3.275375563017207
 20
1.67500000000004
 30
0.0
 11
3.275375563017207
 21
2.875000000000028
 31
0.0
  0
LWPOLYLINE
  5
1FF
330
BC
100
AcDbEntity
  8
freecad trace layer
100
AcDbPolyline
 90
        4
 70
     1
 43
0.0
 10
3.225375563017224
 20
2.860000000000042
 10
3.225375563017224
 20
2.875000000000028
 10
3.275375563017207
 20
2.875000000000028
 10
3.275375563017207
 20
2.860000000000042
  0
LWPOLYLINE
  5
200
330
BC
100
AcDbEntity
  8
freecad trace layer
100
AcDbPolyline
 90
        4
 70
     1
 43
0.0
 10
3.225375563017224
 20
1.690000000000026
 10
3.225375563017224
 20
1.67500000000004
 10
3.275375563017207
 20
1.67500000000004
 10
3.275375563017207
 20
1.690000000000026
  0
LWPOLYLINE
  5
201
330
BC
100
AcDbEntity
  8
freecad trace layer
100
AcDbPolyline
 90
        4
 70
     1
 43
0.0
 10
0.0999999999999659
 20
0.6750000000000398
 10
0.0999999999999659
 20
1.87693939616419
 10
0.0
 20
1.87693939616419
 10
0.0
 20
0.6750000000000398
  0
ENDBLK
  5
209
330
BC
100
AcDbEntity
  8
0
100
AcDbBlockEnd
  0
BLOCK
  5
C5
330
C4
100
AcDbEntity
  8
0
100
AcDbBlockBegin
  2
_Open90
 70
     0
 10
0.0
 20
0.0
 30
0.0
  3
_Open90
  1

  0
LINE
  5
C6
330
C4
100
AcDbEntity
  8
0
  6
ByBlock
 62
     0
370
    -2
100
AcDbLine
 10
-0.5
 20
0.5
 30
0.0
 11
0.0
 21
0.0
 31
0.0
  0
LINE
  5
C7
330
C4
100
AcDbEntity
  8
0
  6
ByBlock
 62
     0
370
    -2
100
AcDbLine
 10
0.0
 20
0.0
 30
0.0
 11
-0.5
 21
-0.5
 31
0.0
  0
LINE
  5
C8
330
C4
100
AcDbEntity
  8
0
  6
ByBlock
 62
     0
370
    -2
100
AcDbLine
 10
0.0
 20
0.0
 30
0.0
 11
-1.0
 21
0.0
 31
0.0
  0
ENDBLK
  5
C9
330
C4
100
AcDbEntity
  8
0
100
AcDbBlockEnd
  0
BLOCK
  5
203
330
202
100
AcDbEntity
  8
0
100
AcDbBlockBegin
  2
_Oblique
 70
     0
 10
0.0
 20
0.0
 30
0.0
  3
_Oblique
  1

  0
LINE
  5
204
330
202
100
AcDbEntity
  8
0
  6
ByBlock
 62
     0
370
    -2
100
AcDbLine
 10
-0.5
 20
-0.5
 30
0.0
 11
0.5
 21
0.5
 31
0.0
  0
ENDBLK
  5
205
330
202
100
AcDbEntity
  8
0
100
AcDbBlockEnd
  0
ENDSEC
  0
SECTION
  2
ENTITIES
  0
INSERT
  5
20A
330
1F
100
AcDbEntity
  8
0
100
AcDbBlockReference
  2
A$C980181008
 10
1.680677377962886
 20
1.050953898794283
 30
0.0
  0
LINE
  5
20B
330
1F
100
AcDbEntity
  8
0
100
AcDbLine
 10
1.780677377962852
 20
1.725953898794323
 30
0.0
 11
4.820677377959168
 21
1.725953898794611
 31
0.0
  0
ENDSEC
  0
SECTION
  2
OBJECTS
  0
DICTIONARY
  5
C
330
0
100
AcDbDictionary
281
     1
  3
ACAD_COLOR
350
D2
  3
ACAD_DETAILVIEWSTYLE
350
B5
  3
ACAD_GROUP
350
D
  3
ACAD_IMAGE_VARS
350
6A
  3
ACAD_LAYOUT
350
1A
  3
ACAD_MATERIAL
350
72
  3
ACAD_MLEADERSTYLE
350
3F
  3
ACAD_MLINESTYLE
350
17
  3
ACAD_PLOTSETTINGS
350
19
  3
ACAD_PLOTSTYLENAME
350
E
  3
ACAD_SCALELIST
350
40
  3
ACAD_SECTIONVIEWSTYLE
350
B6
  3
ACAD_TABLESTYLE
350
3B
  3
ACAD_VISUALSTYLE
350
2A
  3
ACDB_RECOMPOSE_DATA
350
20E
  3
AcDbVariableDictionary
350
3D
  3
APPDATA
350
71
  0
SUN
  5
80
330
29
100
AcDbSun
 90
        1
290
     0
 63
     7
421
 16777215
 40
1.0
291
     1
 91
  2455826
 92
 54000000
292
     0
 70
     2
 71
   256
280
     1
  0
DICTIONARY
  5
206
330
2
100
AcDbDictionary
280
     1
281
     1
  3
ACAD_LAYERSTATES
360
207
  0
DICTIONARY
  5
F4
330
BC
100
AcDbDictionary
280
     1
281
     1
  3
ACAD_SORTENTS
360
F5
  0
DICTIONARY
  5
D2
102
{ACAD_REACTORS
330
C
102
}
330
C
100
AcDbDictionary
281
     1
  0
DICTIONARY
  5
B5
102
{ACAD_REACTORS
330
C
102
}
330
C
100
AcDbDictionary
281
     1
  0
DICTIONARY
  5
D
102
{ACAD_REACTORS
330
C
102
}
330
C
100
AcDbDictionary
281
     1
  0
RASTERVARIABLES
  5
6A
102
{ACAD_REACTORS
330
C
102
}
330
C
100
AcDbRasterVariables
 90
        0
 70
     1
 71
     1
 72
     1
  0
DICTIONARY
  5
1A
102
{ACAD_REACTORS
330
C
102
}
330
C
100
AcDbDictionary
281
     1
  3
Model
350
22
  3
Sheet1
350
1E
  3
Sheet2
350
26
  0
DICTIONARY
  5
72
102
{ACAD_REACTORS
330
C
102
}
330
C
100
AcDbDictionary
281
     1
  3
ByBlock
350
74
  3
ByLayer
350
73
  3
Global
350
75
  0
DICTIONARY
  5
3F
102
{ACAD_REACTORS
330
C
102
}
330
C
100
AcDbDictionary
281
     1
  3
Standard
350
B7
  0
DICTIONARY
  5
17
102
{ACAD_REACTORS
330
C
102
}
330
C
100
AcDbDictionary
281
     1
  3
Standard
350
18
  0
DICTIONARY
  5
19
102
{ACAD_REACTORS
330
C
102
}
330
C
100
AcDbDictionary
281
     1
  0
ACDBDICTIONARYWDFLT
  5
E
102
{ACAD_REACTORS
330
C
102
}
330
C
100
AcDbDictionary
281
     1
  3
Normal
350
F
100
AcDbDictionaryWithDefault
340
F
  0
DICTIONARY
  5
40
102
{ACAD_REACTORS
330
C
102
}
330
C
100
AcDbDictionary
281
     1
  3
A0
350
41
  3
A1
350
42
  3
A2
350
43
  3
A3
350
44
  3
A4
350
45
  3
A5
350
46
  3
A6
350
47
  3
A7
350
48
  3
A8
350
49
  3
A9
350
4A
  3
B0
350
4B
  3
B1
350
4C
  3
B2
350
4D
  3
B3
350
4E
  3
B4
350
4F
  3
B5
350
50
  3
B6
350
51
  3
B7
350
52
  3
B8
350
53
  3
B9
350
54
  3
C0
350
55
  3
C1
350
56
  3
C2
350
57
  3
C3
350
58
  3
C4
350
59
  3
C5
350
5A
  3
C6
350
5B
  3
C7
350
5C
  3
C8
350
5D
  3
C9
350
5E
  3
D0
350
5F
  3
D1
350
60
  3
D2
350
61
  0
DICTIONARY
  5
B6
102
{ACAD_REACTORS
330
C
102
}
330
C
100
AcDbDictionary
281
     1
  0
DICTIONARY
  5
3B
102
{ACAD_REACTORS
330
C
102
}
330
C
100
AcDbDictionary
281
     1
  3
Standard
350
3C
  0
DICTIONARY
  5
2A
102
{ACAD_REACTORS
330
C
102
}
330
C
100
AcDbDictionary
281
     1
  3
2dWireframe
350
2F
  3
3D Hidden
350
31
  3
3dWireframe
350
30
  3
Basic
350
32
  3
Brighten
350
36
  3
ColorChange
350
3A
  3
Conceptual
350
34
  3
Dim
350
35
  3
EdgeColorOff
350
7A
  3
Facepattern
350
39
  3
Flat
350
2B
  3
FlatWithEdges
350
2C
  3
Gouraud
350
2D
  3
GouraudWithEdges
350
2E
  3
Hidden
350
77
  3
JitterOff
350
78
  3
Linepattern
350
38
  3
OverhangOff
350
79
  3
Realistic
350
33
  3
Shaded
350
7F
  3
Shaded with edges
350
7E
  3
Shades of Gray
350
7B
  3
Sketchy
350
7C
  3
Thicken
350
37
  3
Wireframe
350
76
  3
X-Ray
350
7D
  0
XRECORD
  5
20E
102
{ACAD_REACTORS
330
C
102
}
330
C
100
AcDbXrecord
280
     1
 90
        1
330
3C
  0
DICTIONARY
  5
3D
102
{ACAD_REACTORS
330
C
102
}
330
C
100
AcDbDictionary
281
     1
  3
CANNOSCALE
350
62
  3
CMLEADERSTYLE
350
BB
  3
CTABLESTYLE
350
3E
  3
LIGHTSINBLOCKS
350
6F
  3
XCLIPFRAME
350
70
  0
DICTIONARY
  5
71
102
{ACAD_REACTORS
330
C
102
}
330
C
100
AcDbDictionary
281
     1
  0
DICTIONARY
  5
207
102
{ACAD_REACTORS
330
206
102
}
330
206
100
AcDbDictionary
281
     1
  0
SORTENTSTABLE
  5
F5
102
{ACAD_REACTORS
330
F4
330
F4
102
}
330
F4
100
AcDbSortentsTable
330
BC
  0
LAYOUT
  5
22
102
{ACAD_REACTORS
330
1A
102
}
330
1A
100
AcDbPlotSettings
  1

  2
none_device
  4
ISO_A3_(420.00_x_297.00_MM)
  6

 40
7.5
 41
20.0
 42
7.5
 43
20.0
 44
420.0
 45
297.0
 46
20.78282828282826
 47
0.0
 48
0.0
 49
0.0
140
0.0
141
0.0
142
1.0
143
1.155642023346303
 70
  1204
 72
     1
 73
     0
 74
     1
  7
monochrome.ctb
 75
     0
 76
     0
 77
     2
 78
   300
147
0.8653198653198654
148
-134.1869158878504
149
0.0
100
AcDbLayout
  1
Model
 70
     1
 71
     0
 10
0.0
 20
0.0
 11
420.0
 21
297.0
 12
0.0
 22
0.0
 32
0.0
 14
1.680677377962894
 24
1.05095389879429
 34
-0.0000000000000221
 15
14.37067737795022
 25
9.407650506127851
 35
0.000000000000011
146
0.0
 13
0.0
 23
0.0
 33
0.0
 16
1.0
 26
0.0
 36
0.0
 17
0.0
 27
1.0
 37
0.0
 76
     0
330
1F
331
29
  0
LAYOUT
  5
1E
102
{ACAD_REACTORS
330
1A
102
}
330
1A
100
AcDbPlotSettings
  1

  2
none_device
  4

  6

 40
0.0
 41
0.0
 42
0.0
 43
0.0
 44
0.0
 45
0.0
 46
0.0
 47
0.0
 48
0.0
 49
0.0
140
0.0
141
0.0
142
1.0
143
1.0
 70
   688
 72
     0
 73
     0
 74
     5
  7

 75
    16
 76
     0
 77
     2
 78
   300
147
1.0
148
0.0
149
0.0
100
AcDbLayout
  1
Sheet1
 70
     1
 71
     1
 10
0.0
 20
0.0
 11
420.0
 21
297.0
 12
0.0
 22
0.0
 32
0.0
 14
1.000000000000000E+20
 24
1.000000000000000E+20
 34
1.000000000000000E+20
 15
-1.000000000000000E+20
 25
-1.000000000000000E+20
 35
-1.000000000000000E+20
146
0.0
 13
0.0
 23
0.0
 33
0.0
 16
1.0
 26
0.0
 36
0.0
 17
0.0
 27
1.0
 37
0.0
 76
     0
330
1B
  0
LAYOUT
  5
26
102
{ACAD_REACTORS
330
1A
102
}
330
1A
100
AcDbPlotSettings
  1

  2
none_device
  4

  6

 40
0.0
 41
0.0
 42
0.0
 43
0.0
 44
0.0
 45
0.0
 46
0.0
 47
0.0
 48
0.0
 49
0.0
140
0.0
141
0.0
142
1.0
143
1.0
 70
   688
 72
     0
 73
     0
 74
     5
  7

 75
    16
 76
     0
 77
     2
 78
   300
147
1.0
148
0.0
149
0.0
100
AcDbLayout
  1
Sheet2
 70
     1
 71
     2
 10
0.0
 20
0.0
 11
0.0
 21
0.0
 12
0.0
 22
0.0
 32
0.0
 14
0.0
 24
0.0
 34
0.0
 15
0.0
 25
0.0
 35
0.0
146
0.0
 13
0.0
 23
0.0
 33
0.0
 16
1.0
 26
0.0
 36
0.0
 17
0.0
 27
1.0
 37
0.0
 76
     0
330
23
  0
MATERIAL
  5
74
102
{ACAD_REACTORS
330
72
102
}
330
72
100
AcDbMaterial
  1
ByBlock
 72
     1
 94
      127
  0
MATERIAL
  5
73
102
{ACAD_REACTORS
330
72
102
}
330
72
100
AcDbMaterial
  1
ByLayer
 72
     1
 94
      127
  0
MATERIAL
  5
75
102
{ACAD_REACTORS
330
72
102
}
330
72
100
AcDbMaterial
  1
Global
 72
     1
 94
      127
  0
MLEADERSTYLE
  5
B7
102
{ACAD_REACTORS
330
3F
102
}
330
3F
100
AcDbMLeaderStyle
179
     2
170
     2
171
     1
172
     0
 90
        2
 40
0.0
 41
0.0
173
     1
 91
-1056964608
340
14
 92
       -2
290
     1
 42
2.0
291
     1
 43
8.0
  3
Standard
341
0
 44
4.0
300

342
11
174
     1
178
     6
175
     1
176
     0
 93
-1056964608
 45
4.0
292
     0
297
     0
 46
4.0
343
0
 94
-1056964608
 47
1.0
 49
1.0
140
1.0
293
     1
141
0.0
294
     1
177
     0
142
1.0
295
     0
296
     0
143
3.75
271
     0
272
     9
273
     9
298
     0
  0
MLINESTYLE
  5
18
102
{ACAD_REACTORS
330
17
102
}
330
17
100
AcDbMlineStyle
  2
Standard
 70
     0
  3

 62
   256
 51
90.0
 52
90.0
 71
     2
 49
0.5
 62
   256
  6
BYLAYER
 49
-0.5
 62
   256
  6
BYLAYER
  0
ACDBPLACEHOLDER
  5
F
102
{ACAD_REACTORS
330
E
102
}
330
E
  0
SCALE
  5
41
102
{ACAD_REACTORS
330
40
102
}
330
40
100
AcDbScale
 70
     0
300
1:1
140
1.0
141
1.0
290
     1
  0
SCALE
  5
42
102
{ACAD_REACTORS
330
40
102
}
330
40
100
AcDbScale
 70
     0
300
1:2
140
1.0
141
2.0
290
     0
  0
SCALE
  5
43
102
{ACAD_REACTORS
330
40
102
}
330
40
100
AcDbScale
 70
     0
300
1:4
140
1.0
141
4.0
290
     0
  0
SCALE
  5
44
102
{ACAD_REACTORS
330
40
102
}
330
40
100
AcDbScale
 70
     0
300
1:5
140
1.0
141
5.0
290
     0
  0
SCALE
  5
45
102
{ACAD_REACTORS
330
40
102
}
330
40
100
AcDbScale
 70
     0
300
1:8
140
1.0
141
8.0
290
     0
  0
SCALE
  5
46
102
{ACAD_REACTORS
330
40
102
}
330
40
100
AcDbScale
 70
     0
300
1:10
140
1.0
141
10.0
290
     0
  0
SCALE
  5
47
102
{ACAD_REACTORS
330
40
102
}
330
40
100
AcDbScale
 70
     0
300
1:16
140
1.0
141
16.0
290
     0
  0
SCALE
  5
48
102
{ACAD_REACTORS
330
40
102
}
330
40
100
AcDbScale
 70
     0
300
1:20
140
1.0
141
20.0
290
     0
  0
SCALE
  5
49
102
{ACAD_REACTORS
330
40
102
}
330
40
100
AcDbScale
 70
     0
300
1:30
140
1.0
141
30.0
290
     0
  0
SCALE
  5
4A
102
{ACAD_REACTORS
330
40
102
}
330
40
100
AcDbScale
 70
     0
300
1:40
140
1.0
141
40.0
290
     0
  0
SCALE
  5
4B
102
{ACAD_REACTORS
330
40
102
}
330
40
100
AcDbScale
 70
     0
300
1:50
140
1.0
141
50.0
290
     0
  0
SCALE
  5
4C
102
{ACAD_REACTORS
330
40
102
}
330
40
100
AcDbScale
 70
     0
300
1:100
140
1.0
141
100.0
290
     0
  0
SCALE
  5
4D
102
{ACAD_REACTORS
330
40
102
}
330
40
100
AcDbScale
 70
     0
300
2:1
140
2.0
141
1.0
290
     0
  0
SCALE
  5
4E
102
{ACAD_REACTORS
330
40
102
}
330
40
100
AcDbScale
 70
     0
300
4:1
140
4.0
141
1.0
290
     0
  0
SCALE
  5
4F
102
{ACAD_REACTORS
330
40
102
}
330
40
100
AcDbScale
 70
     0
300
8:1
140
8.0
141
1.0
290
     0
  0
SCALE
  5
50
102
{ACAD_REACTORS
330
40
102
}
330
40
100
AcDbScale
 70
     0
300
10:1
140
10.0
141
1.0
290
     0
  0
SCALE
  5
51
102
{ACAD_REACTORS
330
40
102
}
330
40
100
AcDbScale
 70
     0
300
100:1
140
100.0
141
1.0
290
     0
  0
SCALE
  5
52
102
{ACAD_REACTORS
330
40
102
}
330
40
100
AcDbScale
 70
     0
300
1/128" = 1'-0"
140
0.0078125
141
12.0
290
     0
  0
SCALE
  5
53
102
{ACAD_REACTORS
330
40
102
}
330
40
100
AcDbScale
 70
     0
300
1/64" = 1'-0"
140
0.015625
141
12.0
290
     0
  0
SCALE
  5
54
102
{ACAD_REACTORS
330
40
102
}
330
40
100
AcDbScale
 70
     0
300
1/32" = 1'-0"
140
0.03125
141
12.0
290
     0
  0
SCALE
  5
55
102
{ACAD_REACTORS
330
40
102
}
330
40
100
AcDbScale
 70
     0
300
1/16" = 1'-0"
140
0.0625
141
12.0
290
     0
  0
SCALE
  5
56
102
{ACAD_REACTORS
330
40
102
}
330
40
100
AcDbScale
 70
     0
300
3/32" = 1'-0"
140
0.09375
141
12.0
290
     0
  0
SCALE
  5
57
102
{ACAD_REACTORS
330
40
102
}
330
40
100
AcDbScale
 70
     0
300
1/8" = 1'-0"
140
0.125
141
12.0
290
     0
  0
SCALE
  5
58
102
{ACAD_REACTORS
330
40
102
}
330
40
100
AcDbScale
 70
     0
300
3/16" = 1'-0"
140
0.1875
141
12.0
290
     0
  0
SCALE
  5
59
102
{ACAD_REACTORS
330
40
102
}
330
40
100
AcDbScale
 70
     0
300
1/4" = 1'-0"
140
0.25
141
12.0
290
     0
  0
SCALE
  5
5A
102
{ACAD_REACTORS
330
40
102
}
330
40
100
AcDbScale
 70
     0
300
3/8" = 1'-0"
140
0.375
141
12.0
290
     0
  0
SCALE
  5
5B
102
{ACAD_REACTORS
330
40
102
}
330
40
100
AcDbScale
 70
     0
300
1/2" = 1'-0"
140
0.5
141
12.0
290
     0
  0
SCALE
  5
5C
102
{ACAD_REACTORS
330
40
102
}
330
40
100
AcDbScale
 70
     0
300
3/4" = 1'-0"
140
0.75
141
12.0
290
     0
  0
SCALE
  5
5D
102
{ACAD_REACTORS
330
40
102
}
330
40
100
AcDbScale
 70
     0
300
1" = 1'-0"
140
1.0
141
12.0
290
     0
  0
SCALE
  5
5E
102
{ACAD_REACTORS
330
40
102
}
330
40
100
AcDbScale
 70
     0
300
1-1/2" = 1'-0"
140
1.5
141
12.0
290
     0
  0
SCALE
  5
5F
102
{ACAD_REACTORS
330
40
102
}
330
40
100
AcDbScale
 70
     0
300
3" = 1'-0"
140
3.0
141
12.0
290
     0
  0
SCALE
  5
60
102
{ACAD_REACTORS
330
40
102
}
330
40
100
AcDbScale
 70
     0
300
6" = 1'-0"
140
6.0
141
12.0
290
     0
  0
SCALE
  5
61
102
{ACAD_REACTORS
330
40
102
}
330
40
100
AcDbScale
 70
     0
300
1'-0" = 1'-0"
140
12.0
141
12.0
290
     0
  0
TABLESTYLE
  5
3C
102
{ACAD_REACTORS
330
3B
102
}
102
{ACAD_XDICTIONARY
360
20C
102
}
330
3B
100
AcDbTableStyle
  3
Standard
 70
     0
 71
     0
 40
1.5
 41
1.5
280
     0
281
     0
  7
Standard
140
4.5
170
     2
 62
     0
 63
   257
283
     0
 90
      512
 91
        0
  1

274
    -2
284
     1
 64
     0
275
    -2
285
     1
 65
     0
276
    -2
286
     1
 66
     0
277
    -2
287
     1
 67
     0
278
    -2
288
     1
 68
     0
279
    -2
289
     1
 69
     0
  7
Standard
140
6.0
170
     5
 62
     0
 63
   257
283
     0
 90
      512
 91
        0
  1

274
    -2
284
     1
 64
     0
275
    -2
285
     1
 65
     0
276
    -2
286
     1
 66
     0
277
    -2
287
     1
 67
     0
278
    -2
288
     1
 68
     0
279
    -2
289
     1
 69
     0
  7
Standard
140
4.5
170
     5
 62
     0
 63
   257
283
     0
 90
      512
 91
        0
  1

274
    -2
284
     1
 64
     0
275
    -2
285
     1
 65
     0
276
    -2
286
     1
 66
     0
277
    -2
287
     1
 67
     0
278
    -2
288
     1
 68
     0
279
    -2
289
     1
 69
     0
  0
VISUALSTYLE
  5
2F
102
{ACAD_REACTORS
330
2A
102
}
330
2A
100
AcDbVisualStyle
  2
2dWireframe
 70
     4
177
     3
291
     0
 70
    58
 90
        0
176
     1
 90
        2
176
     1
 90
        0
176
     1
 90
        0
176
     1
 40
-0.6
176
     1
 40
-30.0
176
     1
 62
     7
420
 16777215
176
     1
 90
        1
176
     1
 90
        4
176
     1
 62
     7
176
     1
 62
   257
176
     1
 90
        1
176
     1
 90
        1
176
     1
 40
1.0
176
     1
 90
        0
176
     1
 62
   257
176
     1
 40
1.0
176
     1
 90
        1
176
     1
 90
        6
176
     1
 90
        2
176
     1
 62
     7
176
     1
 90
        5
176
     1
 90
        0
176
     1
 90
        0
176
     1
290
     0
176
     1
 90
        1
176
     1
 40
0.0
176
     1
 90
        0
176
     1
290
     1
176
     1
290
     1
176
     1
290
     0
176
     1
290
     0
176
     1
290
     0
176
     1
290
     0
176
     1
290
     0
176
     1
290
     0
176
     1
290
     0
176
     1
 90
       50
176
     1
 40
0.0
176
     1
 40
1.0
176
     1
 90
        0
176
     1
 62
   178
420
        0
176
     1
 90
       50
176
     1
 90
        3
176
     1
 62
     5
420
      255
176
     1
290
     0
176
     1
 90
       50
176
     1
 90
       50
176
     1
 90
       50
176
     1
290
     0
176
     1
 90
       50
176
     1
 62
   256
176
     0
 40
1.0
176
     0
 90
        2
176
     1
  1
strokes_ogs.tif
176
     1
290
     0
176
     1
 40
1.0
176
     1
 40
1.0
176
     1
  0
VISUALSTYLE
  5
31
102
{ACAD_REACTORS
330
2A
102
}
330
2A
100
AcDbVisualStyle
  2
3D Hidden
 70
     6
177
     3
291
     0
 70
    58
 90
        1
176
     1
 90
        2
176
     1
 90
        2
176
     1
 90
        0
176
     1
 40
-0.6
176
     1
 40
-30.0
176
     1
 62
     7
420
 16777215
176
     1
 90
        2
176
     1
 90
        2
176
     1
 62
     7
176
     1
 62
   257
176
     1
 90
        2
176
     1
 90
        1
176
     1
 40
40.0
176
     1
 90
        0
176
     1
 62
   257
176
     1
 40
1.0
176
     1
 90
        1
176
     1
 90
        6
176
     1
 90
        2
176
     1
 62
     7
176
     1
 90
        3
176
     1
 90
        0
176
     1
 90
        0
176
     1
290
     0
176
     1
 90
        1
176
     1
 40
0.0
176
     1
 90
        0
176
     1
290
     0
176
     1
290
     1
176
     1
290
     1
176
     1
290
     0
176
     1
290
     0
176
     1
290
     0
176
     1
290
     0
176
     1
290
     0
176
     1
290
     0
176
     1
 90
       50
176
     1
 40
0.0
176
     1
 40
1.0
176
     1
 90
        0
176
     1
 62
   178
420
        0
176
     1
 90
       50
176
     1
 90
        3
176
     1
 62
     5
420
      255
176
     1
290
     0
176
     1
 90
       50
176
     1
 90
       50
176
     1
 90
       50
176
     1
290
     0
176
     1
 90
       50
176
     1
 62
   256
176
     0
 40
1.0
176
     0
 90
        2
176
     1
  1
strokes_ogs.tif
176
     1
290
     0
176
     1
 40
1.0
176
     1
 40
1.0
176
     1
  0
VISUALSTYLE
  5
30
102
{ACAD_REACTORS
330
2A
102
}
330
2A
100
AcDbVisualStyle
  2
3dWireframe
 70
     5
177
     3
291
     0
 70
    58
 90
        0
176
     1
 90
        2
176
     1
 90
        0
176
     1
 90
        0
176
     1
 40
-0.6
176
     1
 40
-30.0
176
     1
 62
     7
420
 16777215
176
     1
 90
        1
176
     1
 90
        4
176
     1
 62
     7
176
     1
 62
   257
176
     1
 90
        1
176
     1
 90
        1
176
     1
 40
1.0
176
     1
 90
        0
176
     1
 62
   257
176
     1
 40
1.0
176
     1
 90
        1
176
     1
 90
        6
176
     1
 90
        2
176
     1
 62
     7
176
     1
 90
        5
176
     1
 90
        0
176
     1
 90
        0
176
     1
290
     0
176
     1
 90
        1
176
     1
 40
0.0
176
     1
 90
        0
176
     1
290
     0
176
     1
290
     1
176
     1
290
     1
176
     1
290
     0
176
     1
290
     0
176
     1
290
     0
176
     1
290
     0
176
     1
290
     0
176
     1
290
     0
176
     1
 90
       50
176
     1
 40
0.0
176
     1
 40
1.0
176
     1
 90
        0
176
     1
 62
   178
420
        0
176
     1
 90
       50
176
     1
 90
        3
176
     1
 62
     5
420
      255
176
     1
290
     0
176
     1
 90
       50
176
     1
 90
       50
176
     1
 90
       50
176
     1
290
     0
176
     1
 90
       50
176
     1
 62
   256
176
     0
 40
1.0
176
     0
 90
        2
176
     1
  1
strokes_ogs.tif
176
     1
290
     0
176
     1
 40
1.0
176
     1
 40
1.0
176
     1
  0
VISUALSTYLE
  5
32
102
{ACAD_REACTORS
330
2A
102
}
330
2A
100
AcDbVisualStyle
  2
Basic
 70
     7
177
     3
291
     1
 70
    58
 90
        1
176
     1
 90
        0
176
     1
 90
        1
176
     1
 90
        0
176
     1
 40
-0.6
176
     1
 40
-30.0
176
     1
 62
     7
420
 16777215
176
     1
 90
        0
176
     1
 90
        4
176
     1
 62
     7
176
     1
 62
   257
176
     1
 90
        1
176
     1
 90
        1
176
     1
 40
1.0
176
     1
 90
        8
176
     1
 62
     7
176
     1
 40
1.0
176
     1
 90
        1
176
     1
 90
        6
176
     1
 90
        2
176
     1
 62
     7
176
     1
 90
        5
176
     1
 90
        0
176
     1
 90
        0
176
     1
290
     0
176
     1
 90
        1
176
     1
 40
0.0
176
     1
 90
        0
176
     1
290
     0
176
     1
290
     1
176
     1
290
     1
176
     1
290
     0
176
     1
290
     0
176
     1
290
     0
176
     1
290
     0
176
     1
290
     0
176
     1
290
     0
176
     1
 90
       50
176
     1
 40
0.0
176
     1
 40
1.0
176
     1
 90
        0
176
     1
 62
   178
420
        0
176
     1
 90
       50
176
     1
 90
        3
176
     1
 62
     5
420
      255
176
     1
290
     0
176
     1
 90
       50
176
     1
 90
       50
176
     1
 90
       50
176
     1
290
     0
176
     1
 90
       50
176
     1
 62
   256
176
     0
 40
1.0
176
     0
 90
        2
176
     1
  1
strokes_ogs.tif
176
     1
290
     0
176
     1
 40
1.0
176
     1
 40
1.0
176
     1
  0
VISUALSTYLE
  5
36
102
{ACAD_REACTORS
330
2A
102
}
330
2A
100
AcDbVisualStyle
  2
Brighten
 70
    12
177
     3
291
     1
 70
    58
 90
        2
176
     1
 90
        2
176
     1
 90
        0
176
     1
 90
        0
176
     1
 40
-0.6
176
     1
 40
-30.0
176
     1
 62
     7
420
 16777215
176
     1
 90
        1
176
     1
 90
        4
176
     1
 62
     7
176
     1
 62
   257
176
     1
 90
        1
176
     1
 90
        1
176
     1
 40
1.0
176
     1
 90
        8
176
     1
 62
     7
176
     1
 40
1.0
176
     1
 90
        1
176
     1
 90
        6
176
     1
 90
        2
176
     1
 62
     7
176
     1
 90
        5
176
     1
 90
        0
176
     1
 90
        0
176
     1
290
     0
176
     1
 90
        1
176
     1
 40
50.0
176
     1
 90
        0
176
     1
290
     0
176
     1
290
     1
176
     1
290
     1
176
     1
290
     0
176
     1
290
     0
176
     1
290
     0
176
     1
290
     0
176
     1
290
     0
176
     1
290
     0
176
     1
 90
       50
176
     1
 40
0.0
176
     1
 40
1.0
176
     1
 90
        0
176
     1
 62
   178
420
        0
176
     1
 90
       50
176
     1
 90
        3
176
     1
 62
     5
420
      255
176
     1
290
     0
176
     1
 90
       50
176
     1
 90
       50
176
     1
 90
       50
176
     1
290
     0
176
     1
 90
       50
176
     1
 62
   256
176
     0
 40
1.0
176
     0
 90
        2
176
     1
  1
strokes_ogs.tif
176
     1
290
     0
176
     1
 40
1.0
176
     1
 40
1.0
176
     1
  0
VISUALSTYLE
  5
3A
102
{ACAD_REACTORS
330
2A
102
}
330
2A
100
AcDbVisualStyle
  2
ColorChange
 70
    16
177
     3
291
     1
 70
    58
 90
        2
176
     1
 90
        2
176
     1
 90
        3
176
     1
 90
        0
176
     1
 40
-0.6
176
     1
 40
-30.0
176
     1
 62
     8
420
  8421504
176
     1
 90
        1
176
     1
 90
        4
176
     1
 62
     7
176
     1
 62
   257
176
     1
 90
        1
176
     1
 90
        1
176
     1
 40
1.0
176
     1
 90
        8
176
     1
 62
     8
420
  8421504
176
     1
 40
1.0
176
     1
 90
        1
176
     1
 90
        6
176
     1
 90
        2
176
     1
 62
     7
176
     1
 90
        5
176
     1
 90
        0
176
     1
 90
        0
176
     1
290
     0
176
     1
 90
        1
176
     1
 40
0.0
176
     1
 90
        0
176
     1
290
     0
176
     1
290
     1
176
     1
290
     1
176
     1
290
     0
176
     1
290
     0
176
     1
290
     0
176
     1
290
     0
176
     1
290
     0
176
     1
290
     0
176
     1
 90
       50
176
     1
 40
0.0
176
     1
 40
1.0
176
     1
 90
        0
176
     1
 62
   178
420
        0
176
     1
 90
       50
176
     1
 90
        3
176
     1
 62
     5
420
      255
176
     1
290
     0
176
     1
 90
       50
176
     1
 90
       50
176
     1
 90
       50
176
     1
290
     0
176
     1
 90
       50
176
     1
 62
   256
176
     0
 40
1.0
176
     0
 90
        2
176
     1
  1
strokes_ogs.tif
176
     1
290
     0
176
     1
 40
1.0
176
     1
 40
1.0
176
     1
  0
VISUALSTYLE
  5
34
102
{ACAD_REACTORS
330
2A
102
}
330
2A
100
AcDbVisualStyle
  2
Conceptual
 70
     9
177
     3
291
     0
 70
    58
 90
        3
176
     1
 90
        2
176
     1
 90
        0
176
     1
 90
        0
176
     1
 40
-0.6
176
     1
 40
-30.0
176
     1
 62
     7
420
 16777215
176
     1
 90
        2
176
     1
 90
        2
176
     1
 62
     7
176
     1
 62
   257
176
     1
 90
        1
176
     1
 90
        1
176
     1
 40
40.0
176
     1
 90
        8
176
     1
 62
     7
176
     1
 40
1.0
176
     1
 90
        1
176
     1
 90
        6
176
     1
 90
        2
176
     1
 62
     7
176
     1
 90
        3
176
     1
 90
        0
176
     1
 90
        0
176
     1
290
     0
176
     1
 90
        1
176
     1
 40
0.0
176
     1
 90
        0
176
     1
290
     0
176
     1
290
     1
176
     1
290
     1
176
     1
290
     0
176
     1
290
     0
176
     1
290
     0
176
     1
290
     0
176
     1
290
     0
176
     1
290
     0
176
     1
 90
       50
176
     1
 40
0.0
176
     1
 40
1.0
176
     1
 90
        0
176
     1
 62
   178
420
        0
176
     1
 90
       50
176
     1
 90
        3
176
     1
 62
     5
420
      255
176
     1
290
     0
176
     1
 90
       50
176
     1
 90
       50
176
     1
 90
       50
176
     1
290
     0
176
     1
 90
       50
176
     1
 62
   256
176
     0
 40
1.0
176
     0
 90
        2
176
     1
  1
strokes_ogs.tif
176
     1
290
     0
176
     1
 40
1.0
176
     1
 40
1.0
176
     1
  0
VISUALSTYLE
  5
35
102
{ACAD_REACTORS
330
2A
102
}
330
2A
100
AcDbVisualStyle
  2
Dim
 70
    11
177
     3
291
     1
 70
    58
 90
        2
176
     1
 90
        2
176
     1
 90
        0
176
     1
 90
        0
176
     1
 40
-0.6
176
     1
 40
-30.0
176
     1
 62
     7
420
 16777215
176
     1
 90
        1
176
     1
 90
        4
176
     1
 62
     7
176
     1
 62
   257
176
     1
 90
        1
176
     1
 90
        1
176
     1
 40
1.0
176
     1
 90
        8
176
     1
 62
     7
176
     1
 40
1.0
176
     1
 90
        1
176
     1
 90
        6
176
     1
 90
        2
176
     1
 62
     7
176
     1
 90
        5
176
     1
 90
        0
176
     1
 90
        0
176
     1
290
     0
176
     1
 90
        1
176
     1
 40
-50.0
176
     1
 90
        0
176
     1
290
     0
176
     1
290
     1
176
     1
290
     1
176
     1
290
     0
176
     1
290
     0
176
     1
290
     0
176
     1
290
     0
176
     1
290
     0
176
     1
290
     0
176
     1
 90
       50
176
     1
 40
0.0
176
     1
 40
1.0
176
     1
 90
        0
176
     1
 62
   178
420
        0
176
     1
 90
       50
176
     1
 90
        3
176
     1
 62
     5
420
      255
176
     1
290
     0
176
     1
 90
       50
176
     1
 90
       50
176
     1
 90
       50
176
     1
290
     0
176
     1
 90
       50
176
     1
 62
   256
176
     0
 40
1.0
176
     0
 90
        2
176
     1
  1
strokes_ogs.tif
176
     1
290
     0
176
     1
 40
1.0
176
     1
 40
1.0
176
     1
  0
VISUALSTYLE
  5
7A
102
{ACAD_REACTORS
330
2A
102
}
330
2A
100
AcDbVisualStyle
  2
EdgeColorOff
 70
    22
177
     3
291
     1
 70
    58
 90
        2
176
     0
 90
        2
176
     0
 90
        0
176
     0
 90
        0
176
     0
 40
0.6
176
     0
 40
30.0
176
     0
 62
     7
420
 16777215
176
     0
 90
        1
176
     0
 90
        4
176
     0
 62
     7
176
     0
 62
   257
176
     0
 90
        1
176
     0
 90
        1
176
     0
 40
1.0
176
     0
 90
        8
176
     2
 62
     7
176
     0
 40
1.0
176
     0
 90
        1
176
     0
 90
        6
176
     0
 90
        2
176
     0
 62
     7
176
     0
 90
        5
176
     0
 90
        0
176
     0
 90
        0
176
     0
290
     0
176
     0
 90
        1
176
     0
 40
0.0
176
     0
 90
        0
176
     0
290
     0
176
     0
290
     1
176
     0
290
     1
176
     0
290
     0
176
     0
290
     0
176
     0
290
     0
176
     0
290
     0
176
     0
290
     0
176
     0
290
     0
176
     0
 90
       50
176
     0
 40
0.0
176
     0
 40
1.0
176
     0
 90
        0
176
     0
 62
   178
420
        0
176
     0
 90
       50
176
     0
 90
        3
176
     0
 62
     5
420
      255
176
     0
290
     0
176
     0
 90
       50
176
     0
 90
       50
176
     0
 90
       50
176
     0
290
     0
176
     0
 90
       50
176
     0
 62
   256
176
     0
 40
1.0
176
     0
 90
        2
176
     0
  1
strokes_ogs.tif
176
     0
290
     0
176
     0
 40
1.0
176
     0
 40
1.0
176
     0
  0
VISUALSTYLE
  5
39
102
{ACAD_REACTORS
330
2A
102
}
330
2A
100
AcDbVisualStyle
  2
Facepattern
 70
    15
177
     3
291
     1
 70
    58
 90
        2
176
     1
 90
        2
176
     1
 90
        0
176
     1
 90
        0
176
     1
 40
-0.6
176
     1
 40
-30.0
176
     1
 62
     7
420
 16777215
176
     1
 90
        1
176
     1
 90
        4
176
     1
 62
     7
176
     1
 62
   257
176
     1
 90
        1
176
     1
 90
        1
176
     1
 40
1.0
176
     1
 90
        8
176
     1
 62
     7
176
     1
 40
1.0
176
     1
 90
        1
176
     1
 90
        6
176
     1
 90
        2
176
     1
 62
     7
176
     1
 90
        5
176
     1
 90
        0
176
     1
 90
        0
176
     1
290
     0
176
     1
 90
        1
176
     1
 40
0.0
176
     1
 90
        0
176
     1
290
     0
176
     1
290
     1
176
     1
290
     1
176
     1
290
     0
176
     1
290
     0
176
     1
290
     0
176
     1
290
     0
176
     1
290
     0
176
     1
290
     0
176
     1
 90
       50
176
     1
 40
0.0
176
     1
 40
1.0
176
     1
 90
        0
176
     1
 62
   178
420
        0
176
     1
 90
       50
176
     1
 90
        3
176
     1
 62
     5
420
      255
176
     1
290
     0
176
     1
 90
       50
176
     1
 90
       50
176
     1
 90
       50
176
     1
290
     0
176
     1
 90
       50
176
     1
 62
   256
176
     0
 40
1.0
176
     0
 90
        2
176
     1
  1
strokes_ogs.tif
176
     1
290
     0
176
     1
 40
1.0
176
     1
 40
1.0
176
     1
  0
VISUALSTYLE
  5
2B
102
{ACAD_REACTORS
330
2A
102
}
330
2A
100
AcDbVisualStyle
  2
Flat
 70
     0
177
     3
291
     1
 70
    58
 90
        2
176
     1
 90
        1
176
     1
 90
        1
176
     1
 90
        2
176
     1
 40
-0.6
176
     1
 40
30.0
176
     1
 62
     7
420
 16777215
176
     1
 90
        0
176
     1
 90
        4
176
     1
 62
     7
176
     1
 62
   257
176
     1
 90
        1
176
     1
 90
        1
176
     1
 40
1.0
176
     1
 90
        8
176
     1
 62
     7
176
     1
 40
1.0
176
     1
 90
        1
176
     1
 90
        6
176
     1
 90
        2
176
     1
 62
     7
176
     1
 90
        5
176
     1
 90
        0
176
     1
 90
        0
176
     1
290
     0
176
     1
 90
       13
176
     1
 40
0.0
176
     1
 90
        0
176
     1
290
     0
176
     1
290
     1
176
     1
290
     1
176
     1
290
     0
176
     1
290
     0
176
     1
290
     0
176
     1
290
     0
176
     1
290
     0
176
     1
290
     0
176
     1
 90
       50
176
     1
 40
0.0
176
     1
 40
1.0
176
     1
 90
        0
176
     1
 62
   178
420
        0
176
     1
 90
       50
176
     1
 90
        3
176
     1
 62
     5
420
      255
176
     1
290
     0
176
     1
 90
       50
176
     1
 90
       50
176
     1
 90
       50
176
     1
290
     0
176
     1
 90
       50
176
     1
 62
   256
176
     0
 40
1.0
176
     0
 90
        2
176
     1
  1
strokes_ogs.tif
176
     1
290
     0
176
     1
 40
1.0
176
     1
 40
1.0
176
     1
  0
VISUALSTYLE
  5
2C
102
{ACAD_REACTORS
330
2A
102
}
330
2A
100
AcDbVisualStyle
  2
FlatWithEdges
 70
     1
177
     3
291
     1
 70
    58
 90
        2
176
     1
 90
        1
176
     1
 90
        1
176
     1
 90
        2
176
     1
 40
-0.6
176
     1
 40
30.0
176
     1
 62
     7
420
 16777215
176
     1
 90
        1
176
     1
 90
        4
176
     1
 62
     7
176
     1
 62
   257
176
     1
 90
        1
176
     1
 90
        1
176
     1
 40
1.0
176
     1
 90
        0
176
     1
 62
   257
176
     1
 40
1.0
176
     1
 90
        1
176
     1
 90
        6
176
     1
 90
        2
176
     1
 62
     7
176
     1
 90
        5
176
     1
 90
        0
176
     1
 90
        0
176
     1
290
     0
176
     1
 90
       13
176
     1
 40
0.0
176
     1
 90
        0
176
     1
290
     0
176
     1
290
     1
176
     1
290
     1
176
     1
290
     0
176
     1
290
     0
176
     1
290
     0
176
     1
290
     0
176
     1
290
     0
176
     1
290
     0
176
     1
 90
       50
176
     1
 40
0.0
176
     1
 40
1.0
176
     1
 90
        0
176
     1
 62
   178
420
        0
176
     1
 90
       50
176
     1
 90
        3
176
     1
 62
     5
420
      255
176
     1
290
     0
176
     1
 90
       50
176
     1
 90
       50
176
     1
 90
       50
176
     1
290
     0
176
     1
 90
       50
176
     1
 62
   256
176
     0
 40
1.0
176
     0
 90
        2
176
     1
  1
strokes_ogs.tif
176
     1
290
     0
176
     1
 40
1.0
176
     1
 40
1.0
176
     1
  0
VISUALSTYLE
  5
2D
102
{ACAD_REACTORS
330
2A
102
}
330
2A
100
AcDbVisualStyle
  2
Gouraud
 70
     2
177
     3
291
     1
 70
    58
 90
        2
176
     1
 90
        2
176
     1
 90
        1
176
     1
 90
        2
176
     1
 40
-0.6
176
     1
 40
30.0
176
     1
 62
     7
420
 16777215
176
     1
 90
        0
176
     1
 90
        4
176
     1
 62
     7
176
     1
 62
   257
176
     1
 90
        1
176
     1
 90
        1
176
     1
 40
1.0
176
     1
 90
        0
176
     1
 62
     7
176
     1
 40
1.0
176
     1
 90
        1
176
     1
 90
        6
176
     1
 90
        2
176
     1
 62
     7
176
     1
 90
        5
176
     1
 90
        0
176
     1
 90
        0
176
     1
290
     0
176
     1
 90
       13
176
     1
 40
0.0
176
     1
 90
        0
176
     1
290
     0
176
     1
290
     1
176
     1
290
     1
176
     1
290
     0
176
     1
290
     0
176
     1
290
     0
176
     1
290
     0
176
     1
290
     0
176
     1
290
     0
176
     1
 90
       50
176
     1
 40
0.0
176
     1
 40
1.0
176
     1
 90
        0
176
     1
 62
   178
420
        0
176
     1
 90
       50
176
     1
 90
        3
176
     1
 62
     5
420
      255
176
     1
290
     0
176
     1
 90
       50
176
     1
 90
       50
176
     1
 90
       50
176
     1
290
     0
176
     1
 90
       50
176
     1
 62
   256
176
     0
 40
1.0
176
     0
 90
        2
176
     1
  1
strokes_ogs.tif
176
     1
290
     0
176
     1
 40
1.0
176
     1
 40
1.0
176
     1
  0
VISUALSTYLE
  5
2E
102
{ACAD_REACTORS
330
2A
102
}
330
2A
100
AcDbVisualStyle
  2
GouraudWithEdges
 70
     3
177
     3
291
     1
 70
    58
 90
        2
176
     1
 90
        2
176
     1
 90
        1
176
     1
 90
        2
176
     1
 40
-0.6
176
     1
 40
30.0
176
     1
 62
     7
420
 16777215
176
     1
 90
        1
176
     1
 90
        4
176
     1
 62
     7
176
     1
 62
   257
176
     1
 90
        1
176
     1
 90
        1
176
     1
 40
1.0
176
     1
 90
        0
176
     1
 62
   257
176
     1
 40
1.0
176
     1
 90
        1
176
     1
 90
        6
176
     1
 90
        2
176
     1
 62
     7
176
     1
 90
        5
176
     1
 90
        0
176
     1
 90
        0
176
     1
290
     0
176
     1
 90
       13
176
     1
 40
0.0
176
     1
 90
        0
176
     1
290
     0
176
     1
290
     1
176
     1
290
     1
176
     1
290
     0
176
     1
290
     0
176
     1
290
     0
176
     1
290
     0
176
     1
290
     0
176
     1
290
     0
176
     1
 90
       50
176
     1
 40
0.0
176
     1
 40
1.0
176
     1
 90
        0
176
     1
 62
   178
420
        0
176
     1
 90
       50
176
     1
 90
        3
176
     1
 62
     5
420
      255
176
     1
290
     0
176
     1
 90
       50
176
     1
 90
       50
176
     1
 90
       50
176
     1
290
     0
176
     1
 90
       50
176
     1
 62
   256
176
     0
 40
1.0
176
     0
 90
        2
176
     1
  1
strokes_ogs.tif
176
     1
290
     0
176
     1
 40
1.0
176
     1
 40
1.0
176
     1
  0
VISUALSTYLE
  5
77
102
{ACAD_REACTORS
330
2A
102
}
330
2A
100
AcDbVisualStyle
  2
Hidden
 70
     6
177
     3
291
     0
 70
    58
 90
        1
176
     1
 90
        2
176
     1
 90
        2
176
     1
 90
        0
176
     1
 40
0.6
176
     1
 40
30.0
176
     1
 62
     7
420
 16777215
176
     1
 90
        2
176
     1
 90
        2
176
     1
 62
     7
176
     1
 62
   257
176
     1
 90
        2
176
     1
 90
        1
176
     1
 40
40.0
176
     1
 90
        0
176
     1
 62
   257
176
     1
 40
1.0
176
     1
 90
        1
176
     1
 90
        6
176
     1
 90
        2
176
     1
 62
     7
176
     1
 90
        3
176
     1
 90
        0
176
     1
 90
        0
176
     1
290
     0
176
     1
 90
        1
176
     1
 40
0.0
176
     1
 90
        0
176
     1
290
     0
176
     1
290
     1
176
     1
290
     1
176
     1
290
     0
176
     1
290
     0
176
     1
290
     0
176
     1
290
     0
176
     1
290
     0
176
     1
290
     0
176
     1
 90
       50
176
     1
 40
0.0
176
     1
 40
1.0
176
     1
 90
        0
176
     1
 62
   178
420
        0
176
     1
 90
       50
176
     1
 90
        3
176
     1
 62
     5
420
      255
176
     1
290
     0
176
     1
 90
       50
176
     1
 90
       50
176
     1
 90
       50
176
     1
290
     0
176
     1
 90
       50
176
     1
 62
   256
176
     0
 40
1.0
176
     0
 90
        2
176
     1
  1
strokes_ogs.tif
176
     1
290
     0
176
     1
 40
1.0
176
     1
 40
1.0
176
     1
  0
VISUALSTYLE
  5
78
102
{ACAD_REACTORS
330
2A
102
}
330
2A
100
AcDbVisualStyle
  2
JitterOff
 70
    20
177
     3
291
     1
 70
    58
 90
        2
176
     0
 90
        2
176
     0
 90
        0
176
     0
 90
        0
176
     0
 40
0.6
176
     0
 40
30.0
176
     0
 62
     7
420
 16777215
176
     0
 90
        1
176
     0
 90
        4
176
     0
 62
     7
176
     0
 62
   257
176
     0
 90
        1
176
     0
 90
        1
176
     0
 40
1.0
176
     0
 90
       10
176
     2
 62
     7
176
     0
 40
1.0
176
     0
 90
        1
176
     0
 90
        6
176
     0
 90
        2
176
     0
 62
     7
176
     0
 90
        5
176
     0
 90
        0
176
     0
 90
        0
176
     0
290
     0
176
     0
 90
        1
176
     0
 40
0.0
176
     0
 90
        0
176
     0
290
     0
176
     0
290
     1
176
     0
290
     1
176
     0
290
     0
176
     0
290
     0
176
     0
290
     0
176
     0
290
     0
176
     0
290
     0
176
     0
290
     0
176
     0
 90
       50
176
     0
 40
0.0
176
     0
 40
1.0
176
     0
 90
        0
176
     0
 62
   178
420
        0
176
     0
 90
       50
176
     0
 90
        3
176
     0
 62
     5
420
      255
176
     0
290
     0
176
     0
 90
       50
176
     0
 90
       50
176
     0
 90
       50
176
     0
290
     0
176
     0
 90
       50
176
     0
 62
   256
176
     0
 40
1.0
176
     0
 90
        2
176
     0
  1
strokes_ogs.tif
176
     0
290
     0
176
     0
 40
1.0
176
     0
 40
1.0
176
     0
  0
VISUALSTYLE
  5
38
102
{ACAD_REACTORS
330
2A
102
}
330
2A
100
AcDbVisualStyle
  2
Linepattern
 70
    14
177
     3
291
     1
 70
    58
 90
        2
176
     1
 90
        2
176
     1
 90
        0
176
     1
 90
        0
176
     1
 40
-0.6
176
     1
 40
-30.0
176
     1
 62
     7
420
 16777215
176
     1
 90
        1
176
     1
 90
        4
176
     1
 62
     7
176
     1
 62
   257
176
     1
 90
        7
176
     1
 90
        7
176
     1
 40
1.0
176
     1
 90
        8
176
     1
 62
     7
176
     1
 40
1.0
176
     1
 90
        1
176
     1
 90
        6
176
     1
 90
        2
176
     1
 62
     7
176
     1
 90
        5
176
     1
 90
        0
176
     1
 90
        0
176
     1
290
     0
176
     1
 90
        1
176
     1
 40
0.0
176
     1
 90
        0
176
     1
290
     0
176
     1
290
     1
176
     1
290
     1
176
     1
290
     0
176
     1
290
     0
176
     1
290
     0
176
     1
290
     0
176
     1
290
     0
176
     1
290
     0
176
     1
 90
       50
176
     1
 40
0.0
176
     1
 40
1.0
176
     1
 90
        0
176
     1
 62
   178
420
        0
176
     1
 90
       50
176
     1
 90
        3
176
     1
 62
     5
420
      255
176
     1
290
     0
176
     1
 90
       50
176
     1
 90
       50
176
     1
 90
       50
176
     1
290
     0
176
     1
 90
       50
176
     1
 62
   256
176
     0
 40
1.0
176
     0
 90
        2
176
     1
  1
strokes_ogs.tif
176
     1
290
     0
176
     1
 40
1.0
176
     1
 40
1.0
176
     1
  0
VISUALSTYLE
  5
79
102
{ACAD_REACTORS
330
2A
102
}
330
2A
100
AcDbVisualStyle
  2
OverhangOff
 70
    21
177
     3
291
     1
 70
    58
 90
        2
176
     0
 90
        2
176
     0
 90
        0
176
     0
 90
        0
176
     0
 40
0.6
176
     0
 40
30.0
176
     0
 62
     7
420
 16777215
176
     0
 90
        1
176
     0
 90
        4
176
     0
 62
     7
176
     0
 62
   257
176
     0
 90
        1
176
     0
 90
        1
176
     0
 40
1.0
176
     0
 90
        9
176
     2
 62
     7
176
     0
 40
1.0
176
     0
 90
        1
176
     0
 90
        6
176
     0
 90
        2
176
     0
 62
     7
176
     0
 90
        5
176
     0
 90
        0
176
     0
 90
        0
176
     0
290
     0
176
     0
 90
        1
176
     0
 40
0.0
176
     0
 90
        0
176
     0
290
     0
176
     0
290
     1
176
     0
290
     1
176
     0
290
     0
176
     0
290
     0
176
     0
290
     0
176
     0
290
     0
176
     0
290
     0
176
     0
290
     0
176
     0
 90
       50
176
     0
 40
0.0
176
     0
 40
1.0
176
     0
 90
        0
176
     0
 62
   178
420
        0
176
     0
 90
       50
176
     0
 90
        3
176
     0
 62
     5
420
      255
176
     0
290
     0
176
     0
 90
       50
176
     0
 90
       50
176
     0
 90
       50
176
     0
290
     0
176
     0
 90
       50
176
     0
 62
   256
176
     0
 40
1.0
176
     0
 90
        2
176
     0
  1
strokes_ogs.tif
176
     0
290
     0
176
     0
 40
1.0
176
     0
 40
1.0
176
     0
  0
VISUALSTYLE
  5
33
102
{ACAD_REACTORS
330
2A
102
}
330
2A
100
AcDbVisualStyle
  2
Realistic
 70
     8
177
     3
291
     0
 70
    58
 90
        2
176
     1
 90
        2
176
     1
 90
        0
176
     1
 90
        0
176
     1
 40
-0.6
176
     1
 40
-30.0
176
     1
 62
     7
420
 16777215
176
     1
 90
        1
176
     1
 90
        0
176
     1
 62
     7
176
     1
 62
   257
176
     1
 90
        1
176
     1
 90
        1
176
     1
 40
1.0
176
     1
 90
        8
176
     1
 62
     8
420
  7895160
176
     1
 40
1.0
176
     1
 90
        1
176
     1
 90
        6
176
     1
 90
        2
176
     1
 62
     7
176
     1
 90
        5
176
     1
 90
        0
176
     1
 90
        0
176
     1
290
     0
176
     1
 90
       13
176
     1
 40
0.0
176
     1
 90
        0
176
     1
290
     0
176
     1
290
     1
176
     1
290
     1
176
     1
290
     0
176
     1
290
     0
176
     1
290
     0
176
     1
290
     0
176
     1
290
     0
176
     1
290
     0
176
     1
 90
       50
176
     1
 40
0.0
176
     1
 40
1.0
176
     1
 90
        0
176
     1
 62
   178
420
        0
176
     1
 90
       50
176
     1
 90
        3
176
     1
 62
     5
420
      255
176
     1
290
     0
176
     1
 90
       50
176
     1
 90
       50
176
     1
 90
       50
176
     1
290
     0
176
     1
 90
       50
176
     1
 62
   256
176
     0
 40
1.0
176
     0
 90
        2
176
     1
  1
strokes_ogs.tif
176
     1
290
     0
176
     1
 40
1.0
176
     1
 40
1.0
176
     1
  0
VISUALSTYLE
  5
7F
102
{ACAD_REACTORS
330
2A
102
}
330
2A
100
AcDbVisualStyle
  2
Shaded
 70
    27
177
     3
291
     0
 70
    58
 90
        2
176
     1
 90
        2
176
     1
 90
        1
176
     1
 90
        2
176
     1
 40
0.6
176
     1
 40
30.0
176
     1
 62
     7
420
 16777215
176
     1
 90
        0
176
     1
 90
        4
176
     1
 62
     7
176
     1
 62
   257
176
     1
 90
        1
176
     1
 90
        1
176
     1
 40
1.0
176
     1
 90
        8
176
     1
 62
   257
176
     1
 40
1.0
176
     1
 90
        1
176
     1
 90
        6
176
     1
 90
        2
176
     1
 62
     8
420
  7895160
176
     1
 90
        3
176
     1
 90
        0
176
     1
 90
        0
176
     1
290
     0
176
     1
 90
        5
176
     1
 40
0.0
176
     1
 90
        0
176
     1
290
     0
176
     1
290
     1
176
     1
290
     1
176
     1
290
     0
176
     1
290
     0
176
     1
290
     0
176
     1
290
     0
176
     1
290
     0
176
     1
290
     0
176
     1
 90
       50
176
     1
 40
0.0
176
     1
 40
1.0
176
     1
 90
        0
176
     1
 62
   178
420
        0
176
     1
 90
       50
176
     1
 90
        3
176
     1
 62
     5
420
      255
176
     1
290
     0
176
     1
 90
       50
176
     1
 90
       50
176
     1
 90
       50
176
     1
290
     0
176
     1
 90
       50
176
     1
 62
   256
176
     0
 40
1.0
176
     0
 90
        2
176
     1
  1
strokes_ogs.tif
176
     1
290
     0
176
     1
 40
1.0
176
     1
 40
1.0
176
     1
  0
VISUALSTYLE
  5
7E
102
{ACAD_REACTORS
330
2A
102
}
330
2A
100
AcDbVisualStyle
  2
Shaded with edges
 70
    26
177
     3
291
     0
 70
    58
 90
        2
176
     1
 90
        2
176
     1
 90
        1
176
     1
 90
        2
176
     1
 40
0.6
176
     1
 40
30.0
176
     1
 62
     7
420
 16777215
176
     1
 90
        1
176
     1
 90
       10
176
     1
 62
     7
176
     1
 62
   257
176
     1
 90
        2
176
     1
 90
        1
176
     1
 40
1.0
176
     1
 90
        8
176
     1
 62
   257
176
     1
 40
1.0
176
     1
 90
        1
176
     1
 90
        6
176
     1
 90
        2
176
     1
 62
     7
176
     1
 90
        3
176
     1
 90
        0
176
     1
 90
        0
176
     1
290
     0
176
     1
 90
        5
176
     1
 40
0.0
176
     1
 90
        0
176
     1
290
     0
176
     1
290
     1
176
     1
290
     1
176
     1
290
     0
176
     1
290
     0
176
     1
290
     0
176
     1
290
     0
176
     1
290
     0
176
     1
290
     0
176
     1
 90
       50
176
     1
 40
0.0
176
     1
 40
1.0
176
     1
 90
        0
176
     1
 62
   178
420
        0
176
     1
 90
       50
176
     1
 90
        3
176
     1
 62
     5
420
      255
176
     1
290
     0
176
     1
 90
       50
176
     1
 90
       50
176
     1
 90
       50
176
     1
290
     0
176
     1
 90
       50
176
     1
 62
   256
176
     0
 40
1.0
176
     0
 90
        2
176
     1
  1
strokes_ogs.tif
176
     1
290
     0
176
     1
 40
1.0
176
     1
 40
1.0
176
     1
  0
VISUALSTYLE
  5
7B
102
{ACAD_REACTORS
330
2A
102
}
330
2A
100
AcDbVisualStyle
  2
Shades of Gray
 70
    23
177
     3
291
     0
 70
    58
 90
        2
176
     1
 90
        2
176
     1
 90
        3
176
     1
 90
        0
176
     1
 40
0.6
176
     1
 40
30.0
176
     1
 62
     7
420
 16777215
176
     1
 90
        2
176
     1
 90
        2
176
     1
 62
     7
176
     1
 62
     7
176
     1
 90
        1
176
     1
 90
        1
176
     1
 40
40.0
176
     1
 90
        8
176
     1
 62
     7
176
     1
 40
1.0
176
     1
 90
        1
176
     1
 90
        6
176
     1
 90
        2
176
     1
 62
     7
176
     1
 90
        3
176
     1
 90
        0
176
     1
 90
        0
176
     1
290
     0
176
     1
 90
        1
176
     1
 40
0.0
176
     1
 90
        0
176
     1
290
     0
176
     1
290
     1
176
     1
290
     1
176
     1
290
     0
176
     1
290
     0
176
     1
290
     0
176
     1
290
     0
176
     1
290
     0
176
     1
290
     0
176
     1
 90
       50
176
     1
 40
0.0
176
     1
 40
1.0
176
     1
 90
        0
176
     1
 62
   178
420
        0
176
     1
 90
       50
176
     1
 90
        3
176
     1
 62
     5
420
      255
176
     1
290
     0
176
     1
 90
       50
176
     1
 90
       50
176
     1
 90
       50
176
     1
290
     0
176
     1
 90
       50
176
     1
 62
   256
176
     0
 40
1.0
176
     0
 90
        2
176
     1
  1
strokes_ogs.tif
176
     1
290
     0
176
     1
 40
1.0
176
     1
 40
1.0
176
     1
  0
VISUALSTYLE
  5
7C
102
{ACAD_REACTORS
330
2A
102
}
330
2A
100
AcDbVisualStyle
  2
Sketchy
 70
    24
177
     3
291
     0
 70
    58
 90
        1
176
     1
 90
        2
176
     1
 90
        2
176
     1
 90
        0
176
     1
 40
0.6
176
     1
 40
30.0
176
     1
 62
     7
420
 16777215
176
     1
 90
        2
176
     1
 90
        2
176
     1
 62
     7
176
     1
 62
     7
176
     1
 90
        1
176
     1
 90
        1
176
     1
 40
40.0
176
     1
 90
       11
176
     1
 62
     7
176
     1
 40
1.0
176
     1
 90
        1
176
     1
 90
        6
176
     1
 90
        2
176
     1
 62
     7
176
     1
 90
        6
176
     1
 90
        0
176
     1
 90
        0
176
     1
290
     0
176
     1
 90
        1
176
     1
 40
0.0
176
     1
 90
        0
176
     1
290
     0
176
     1
290
     1
176
     1
290
     1
176
     1
290
     0
176
     1
290
     0
176
     1
290
     0
176
     1
290
     0
176
     1
290
     0
176
     1
290
     0
176
     1
 90
       50
176
     1
 40
0.0
176
     1
 40
1.0
176
     1
 90
        0
176
     1
 62
   178
420
        0
176
     1
 90
       50
176
     1
 90
        3
176
     1
 62
     5
420
      255
176
     1
290
     0
176
     1
 90
       50
176
     1
 90
       50
176
     1
 90
       50
176
     1
290
     0
176
     1
 90
       50
176
     1
 62
   256
176
     0
 40
1.0
176
     0
 90
        2
176
     1
  1
strokes_ogs.tif
176
     1
290
     0
176
     1
 40
1.0
176
     1
 40
1.0
176
     1
  0
VISUALSTYLE
  5
37
102
{ACAD_REACTORS
330
2A
102
}
330
2A
100
AcDbVisualStyle
  2
Thicken
 70
    13
177
     3
291
     1
 70
    58
 90
        2
176
     1
 90
        2
176
     1
 90
        0
176
     1
 90
        0
176
     1
 40
-0.6
176
     1
 40
-30.0
176
     1
 62
     7
420
 16777215
176
     1
 90
        1
176
     1
 90
        4
176
     1
 62
     7
176
     1
 62
   257
176
     1
 90
        1
176
     1
 90
        1
176
     1
 40
1.0
176
     1
 90
       12
176
     1
 62
     7
176
     1
 40
1.0
176
     1
 90
        1
176
     1
 90
        6
176
     1
 90
        2
176
     1
 62
     7
176
     1
 90
        5
176
     1
 90
        0
176
     1
 90
        0
176
     1
290
     0
176
     1
 90
        1
176
     1
 40
0.0
176
     1
 90
        0
176
     1
290
     0
176
     1
290
     1
176
     1
290
     1
176
     1
290
     0
176
     1
290
     0
176
     1
290
     0
176
     1
290
     0
176
     1
290
     0
176
     1
290
     0
176
     1
 90
       50
176
     1
 40
0.0
176
     1
 40
1.0
176
     1
 90
        0
176
     1
 62
   178
420
        0
176
     1
 90
       50
176
     1
 90
        3
176
     1
 62
     5
420
      255
176
     1
290
     0
176
     1
 90
       50
176
     1
 90
       50
176
     1
 90
       50
176
     1
290
     0
176
     1
 90
       50
176
     1
 62
   256
176
     0
 40
1.0
176
     0
 90
        2
176
     1
  1
strokes_ogs.tif
176
     1
290
     0
176
     1
 40
1.0
176
     1
 40
1.0
176
     1
  0
VISUALSTYLE
  5
76
102
{ACAD_REACTORS
330
2A
102
}
330
2A
100
AcDbVisualStyle
  2
Wireframe
 70
     5
177
     3
291
     0
 70
    58
 90
        0
176
     1
 90
        2
176
     1
 90
        0
176
     1
 90
        0
176
     1
 40
0.6
176
     1
 40
30.0
176
     1
 62
     7
420
 16777215
176
     1
 90
        1
176
     1
 90
        4
176
     1
 62
     7
176
     1
 62
   257
176
     1
 90
        1
176
     1
 90
        1
176
     1
 40
1.0
176
     1
 90
        0
176
     1
 62
   257
176
     1
 40
1.0
176
     1
 90
        1
176
     1
 90
        6
176
     1
 90
        2
176
     1
 62
     7
176
     1
 90
        3
176
     1
 90
        0
176
     1
 90
        0
176
     1
290
     0
176
     1
 90
        1
176
     1
 40
0.0
176
     1
 90
        0
176
     1
290
     0
176
     1
290
     1
176
     1
290
     1
176
     1
290
     0
176
     1
290
     0
176
     1
290
     0
176
     1
290
     0
176
     1
290
     0
176
     1
290
     0
176
     1
 90
       50
176
     1
 40
0.0
176
     1
 40
1.0
176
     1
 90
        0
176
     1
 62
   178
420
        0
176
     1
 90
       50
176
     1
 90
        3
176
     1
 62
     5
420
      255
176
     1
290
     0
176
     1
 90
       50
176
     1
 90
       50
176
     1
 90
       50
176
     1
290
     0
176
     1
 90
       50
176
     1
 62
   256
176
     0
 40
1.0
176
     0
 90
        2
176
     1
  1
strokes_ogs.tif
176
     1
290
     0
176
     1
 40
1.0
176
     1
 40
1.0
176
     1
  0
VISUALSTYLE
  5
7D
102
{ACAD_REACTORS
330
2A
102
}
330
2A
100
AcDbVisualStyle
  2
X-Ray
 70
    25
177
     3
291
     0
 70
    58
 90
        2
176
     1
 90
        2
176
     1
 90
        1
176
     1
 90
        1
176
     1
 40
0.5
176
     1
 40
30.0
176
     1
 62
     7
420
 16777215
176
     1
 90
        1
176
     1
 90
        0
176
     1
 62
     7
176
     1
 62
   257
176
     1
 90
        1
176
     1
 90
        1
176
     1
 40
1.0
176
     1
 90
        8
176
     1
 62
     7
176
     1
 40
1.0
176
     1
 90
        1
176
     1
 90
        6
176
     1
 90
        2
176
     1
 62
     7
176
     1
 90
        3
176
     1
 90
        0
176
     1
 90
        0
176
     1
290
     0
176
     1
 90
       13
176
     1
 40
0.0
176
     1
 90
        0
176
     1
290
     0
176
     1
290
     1
176
     1
290
     1
176
     1
290
     0
176
     1
290
     0
176
     1
290
     0
176
     1
290
     0
176
     1
290
     0
176
     1
290
     0
176
     1
 90
       50
176
     1
 40
0.0
176
     1
 40
1.0
176
     1
 90
        0
176
     1
 62
   178
420
        0
176
     1
 90
       50
176
     1
 90
        3
176
     1
 62
     5
420
      255
176
     1
290
     0
176
     1
 90
       50
176
     1
 90
       50
176
     1
 90
       50
176
     1
290
     0
176
     1
 90
       50
176
     1
 62
   256
176
     0
 40
1.0
176
     0
 90
        2
176
     1
  1
strokes_ogs.tif
176
     1
290
     0
176
     1
 40
1.0
176
     1
 40
1.0
176
     1
  0
DICTIONARYVAR
  5
62
102
{ACAD_REACTORS
330
3D
102
}
330
3D
100
DictionaryVariables
280
     0
  1
1:1
  0
DICTIONARYVAR
  5
BB
102
{ACAD_REACTORS
330
3D
102
}
330
3D
100
DictionaryVariables
280
     0
  1
Standard
  0
DICTIONARYVAR
  5
3E
102
{ACAD_REACTORS
330
3D
102
}
330
3D
100
DictionaryVariables
280
     0
  1
Standard
  0
DICTIONARYVAR
  5
6F
102
{ACAD_REACTORS
330
3D
102
}
330
3D
100
DictionaryVariables
280
     0
  1
0
  0
DICTIONARYVAR
  5
70
102
{ACAD_REACTORS
330
3D
102
}
330
3D
100
DictionaryVariables
280
     0
  1
0
  0
DICTIONARY
  5
20C
330
3C
100
AcDbDictionary
280
     1
281
     1
  3
ACAD_ROUNDTRIP_2008_TABLESTYLE_CELLSTYLEMAP
360
20D
  0
CELLSTYLEMAP
  5
20D
102
{ACAD_REACTORS
330
20C
102
}
330
20C
100
AcDbCellStyleMap
 90
        3
300
CELLSTYLE
  1
TABLEFORMAT_BEGIN
 90
        5
170
     1
 91
        0
 92
    32768
 62
   257
 93
        1
300
CONTENTFORMAT
  1
CONTENTFORMAT_BEGIN
 90
        0
 91
        0
 92
      512
 93
        0
300

 40
0.0
140
1.0
 94
        5
 62
     0
340
11
144
6.0
309
CONTENTFORMAT_END
171
     1
301
MARGIN
  1
CELLMARGIN_BEGIN
 40
1.5
 40
1.5
 40
1.5
 40
1.5
 40
0.18
 40
0.18
309
CELLMARGIN_END
 94
        6
 95
        1
302
GRIDFORMAT
  1
GRIDFORMAT_BEGIN
 90
        0
 91
        1
 62
     0
 92
       -2
340
0
 93
        0
 40
0.045
309
GRIDFORMAT_END
 95
        2
302
GRIDFORMAT
  1
GRIDFORMAT_BEGIN
 90
        0
 91
        1
 62
     0
 92
       -2
340
0
 93
        0
 40
0.045
309
GRIDFORMAT_END
 95
        4
302
GRIDFORMAT
  1
GRIDFORMAT_BEGIN
 90
        0
 91
        1
 62
     0
 92
       -2
340
0
 93
        0
 40
0.045
309
GRIDFORMAT_END
 95
        8
302
GRIDFORMAT
  1
GRIDFORMAT_BEGIN
 90
        0
 91
        1
 62
     0
 92
       -2
340
0
 93
        0
 40
0.045
309
GRIDFORMAT_END
 95
       16
302
GRIDFORMAT
  1
GRIDFORMAT_BEGIN
 90
        0
 91
        1
 62
     0
 92
       -2
340
0
 93
        0
 40
0.045
309
GRIDFORMAT_END
 95
       32
302
GRIDFORMAT
  1
GRIDFORMAT_BEGIN
 90
        0
 91
        1
 62
     0
 92
       -2
340
0
 93
        0
 40
0.045
309
GRIDFORMAT_END
309
TABLEFORMAT_END
  1
CELLSTYLE_BEGIN
 90
        1
 91
        1
300
_TITLE
309
CELLSTYLE_END
300
CELLSTYLE
  1
TABLEFORMAT_BEGIN
 90
        5
170
     1
 91
        0
 92
        0
 62
   257
 93
        1
300
CONTENTFORMAT
  1
CONTENTFORMAT_BEGIN
 90
        0
 91
        0
 92
      512
 93
        0
300

 40
0.0
140
1.0
 94
        5
 62
     0
340
11
144
4.5
309
CONTENTFORMAT_END
171
     1
301
MARGIN
  1
CELLMARGIN_BEGIN
 40
1.5
 40
1.5
 40
1.5
 40
1.5
 40
0.18
 40
0.18
309
CELLMARGIN_END
 94
        6
 95
        1
302
GRIDFORMAT
  1
GRIDFORMAT_BEGIN
 90
        0
 91
        1
 62
     0
 92
       -2
340
0
 93
        0
 40
0.045
309
GRIDFORMAT_END
 95
        2
302
GRIDFORMAT
  1
GRIDFORMAT_BEGIN
 90
        0
 91
        1
 62
     0
 92
       -2
340
0
 93
        0
 40
0.045
309
GRIDFORMAT_END
 95
        4
302
GRIDFORMAT
  1
GRIDFORMAT_BEGIN
 90
        0
 91
        1
 62
     0
 92
       -2
340
0
 93
        0
 40
0.045
309
GRIDFORMAT_END
 95
        8
302
GRIDFORMAT
  1
GRIDFORMAT_BEGIN
 90
        0
 91
        1
 62
     0
 92
       -2
340
0
 93
        0
 40
0.045
309
GRIDFORMAT_END
 95
       16
302
GRIDFORMAT
  1
GRIDFORMAT_BEGIN
 90
        0
 91
        1
 62
     0
 92
       -2
340
0
 93
        0
 40
0.045
309
GRIDFORMAT_END
 95
       32
302
GRIDFORMAT
  1
GRIDFORMAT_BEGIN
 90
        0
 91
        1
 62
     0
 92
       -2
340
0
 93
        0
 40
0.045
309
GRIDFORMAT_END
309
TABLEFORMAT_END
  1
CELLSTYLE_BEGIN
 90
        2
 91
        1
300
_HEADER
309
CELLSTYLE_END
300
CELLSTYLE
  1
TABLEFORMAT_BEGIN
 90
        5
170
     1
 91
        0
 92
        0
 62
   257
 93
        1
300
CONTENTFORMAT
  1
CONTENTFORMAT_BEGIN
 90
        0
 91
        0
 92
      512
 93
        0
300

 40
0.0
140
1.0
 94
        2
 62
     0
340
11
144
4.5
309
CONTENTFORMAT_END
171
     1
301
MARGIN
  1
CELLMARGIN_BEGIN
 40
1.5
 40
1.5
 40
1.5
 40
1.5
 40
0.18
 40
0.18
309
CELLMARGIN_END
 94
        6
 95
        1
302
GRIDFORMAT
  1
GRIDFORMAT_BEGIN
 90
        0
 91
        1
 62
     0
 92
       -2
340
0
 93
        0
 40
0.045
309
GRIDFORMAT_END
 95
        2
302
GRIDFORMAT
  1
GRIDFORMAT_BEGIN
 90
        0
 91
        1
 62
     0
 92
       -2
340
0
 93
        0
 40
0.045
309
GRIDFORMAT_END
 95
        4
302
GRIDFORMAT
  1
GRIDFORMAT_BEGIN
 90
        0
 91
        1
 62
     0
 92
       -2
340
0
 93
        0
 40
0.045
309
GRIDFORMAT_END
 95
        8
302
GRIDFORMAT
  1
GRIDFORMAT_BEGIN
 90
        0
 91
        1
 62
     0
 92
       -2
340
0
 93
        0
 40
0.045
309
GRIDFORMAT_END
 95
       16
302
GRIDFORMAT
  1
GRIDFORMAT_BEGIN
 90
        0
 91
        1
 62
     0
 92
       -2
340
0
 93
        0
 40
0.045
309
GRIDFORMAT_END
 95
       32
302
GRIDFORMAT
  1
GRIDFORMAT_BEGIN
 90
        0
 91
        1
 62
     0
 92
       -2
340
0
 93
        0
 40
0.045
309
GRIDFORMAT_END
309
TABLEFORMAT_END
  1
CELLSTYLE_BEGIN
 90
        3
 91
        2
300
_DATA
309
CELLSTYLE_END
  0
ENDSEC
  0
EOF
